<svg width="219" height="31" viewBox="0 0 219 31" fill="none" xmlns="http://www.w3.org/2000/svg">
<path d="M18.39 15.9C18.39 17.18 18.09 18.35 17.49 19.41C16.91 20.45 16.02 21.29 14.82 21.93C13.64 22.55 12.19 22.86 10.47 22.86H7.56V30H1.68V8.85H10.47C12.17 8.85 13.61 9.15 14.79 9.75C15.99 10.35 16.89 11.18 17.49 12.24C18.09 13.3 18.39 14.52 18.39 15.9ZM9.9 18.18C11.56 18.18 12.39 17.42 12.39 15.9C12.39 14.36 11.56 13.59 9.9 13.59H7.56V18.18H9.9ZM26.6323 16.14C27.2923 15.18 28.0923 14.42 29.0323 13.86C29.9723 13.3 30.9823 13.02 32.0623 13.02V19.29H30.4123C29.1323 19.29 28.1823 19.54 27.5623 20.04C26.9423 20.54 26.6323 21.41 26.6323 22.65V30H20.7523V13.17H26.6323V16.14ZM33.2102 21.57C33.2102 19.83 33.5202 18.31 34.1402 17.01C34.7802 15.71 35.6402 14.71 36.7202 14.01C37.8202 13.31 39.0402 12.96 40.3802 12.96C41.5402 12.96 42.5402 13.19 43.3802 13.65C44.2202 14.11 44.8702 14.73 45.3302 15.51V13.17H51.2102V30H45.3302V27.66C44.8702 28.44 44.2102 29.06 43.3502 29.52C42.5102 29.98 41.5202 30.21 40.3802 30.21C39.0402 30.21 37.8202 29.86 36.7202 29.16C35.6402 28.46 34.7802 27.46 34.1402 26.16C33.5202 24.84 33.2102 23.31 33.2102 21.57ZM45.3302 21.57C45.3302 20.49 45.0302 19.64 44.4302 19.02C43.8502 18.4 43.1302 18.09 42.2702 18.09C41.3902 18.09 40.6602 18.4 40.0802 19.02C39.5002 19.62 39.2102 20.47 39.2102 21.57C39.2102 22.65 39.5002 23.51 40.0802 24.15C40.6602 24.77 41.3902 25.08 42.2702 25.08C43.1302 25.08 43.8502 24.77 44.4302 24.15C45.0302 23.53 45.3302 22.67 45.3302 21.57ZM53.6009 21.57C53.6009 19.83 53.9609 18.31 54.6809 17.01C55.4009 15.71 56.4009 14.71 57.6809 14.01C58.9809 13.31 60.4609 12.96 62.1209 12.96C64.2609 12.96 66.0609 13.55 67.5209 14.73C68.9809 15.89 69.9209 17.52 70.3409 19.62H64.1009C63.7409 18.52 63.0409 17.97 62.0009 17.97C61.2609 17.97 60.6709 18.28 60.2309 18.9C59.8109 19.5 59.6009 20.39 59.6009 21.57C59.6009 22.75 59.8109 23.65 60.2309 24.27C60.6709 24.89 61.2609 25.2 62.0009 25.2C63.0609 25.2 63.7609 24.65 64.1009 23.55H70.3409C69.9209 25.63 68.9809 27.26 67.5209 28.44C66.0609 29.62 64.2609 30.21 62.1209 30.21C60.4609 30.21 58.9809 29.86 57.6809 29.16C56.4009 28.46 55.4009 27.46 54.6809 26.16C53.9609 24.86 53.6009 23.33 53.6009 21.57ZM82.7135 24.99V30H80.1635C75.8635 30 73.7135 27.87 73.7135 23.61V18.06H71.6435V13.17H73.7135V9.09H79.6235V13.17H82.6835V18.06H79.6235V23.7C79.6235 24.16 79.7235 24.49 79.9235 24.69C80.1435 24.89 80.5035 24.99 81.0035 24.99H82.7135ZM101.49 21.39C101.49 21.85 101.46 22.31 101.4 22.77H90.2705C90.3305 23.69 90.5805 24.38 91.0205 24.84C91.4805 25.28 92.0605 25.5 92.7605 25.5C93.7405 25.5 94.4405 25.06 94.8605 24.18H101.13C100.87 25.34 100.36 26.38 99.6005 27.3C98.8605 28.2 97.9205 28.91 96.7805 29.43C95.6405 29.95 94.3805 30.21 93.0005 30.21C91.3405 30.21 89.8605 29.86 88.5605 29.16C87.2805 28.46 86.2705 27.46 85.5305 26.16C84.8105 24.86 84.4505 23.33 84.4505 21.57C84.4505 19.81 84.8105 18.29 85.5305 17.01C86.2505 15.71 87.2505 14.71 88.5305 14.01C89.8305 13.31 91.3205 12.96 93.0005 12.96C94.6605 12.96 96.1305 13.3 97.4105 13.98C98.6905 14.66 99.6905 15.64 100.41 16.92C101.13 18.18 101.49 19.67 101.49 21.39ZM95.4905 19.92C95.4905 19.2 95.2505 18.64 94.7705 18.24C94.2905 17.82 93.6905 17.61 92.9705 17.61C92.2505 17.61 91.6605 17.81 91.2005 18.21C90.7405 18.59 90.4405 19.16 90.3005 19.92H95.4905ZM102.937 21.57C102.937 19.83 103.247 18.31 103.867 17.01C104.507 15.71 105.367 14.71 106.447 14.01C107.547 13.31 108.767 12.96 110.107 12.96C111.267 12.96 112.267 13.19 113.107 13.65C113.947 14.11 114.597 14.73 115.057 15.51V13.17H120.937V30H115.057V27.66C114.597 28.44 113.937 29.06 113.077 29.52C112.237 29.98 111.247 30.21 110.107 30.21C108.767 30.21 107.547 29.86 106.447 29.16C105.367 28.46 104.507 27.46 103.867 26.16C103.247 24.84 102.937 23.31 102.937 21.57ZM115.057 21.57C115.057 20.49 114.757 19.64 114.157 19.02C113.577 18.4 112.857 18.09 111.997 18.09C111.117 18.09 110.387 18.4 109.807 19.02C109.227 19.62 108.937 20.47 108.937 21.57C108.937 22.65 109.227 23.51 109.807 24.15C110.387 24.77 111.117 25.08 111.997 25.08C112.857 25.08 113.577 24.77 114.157 24.15C114.757 23.53 115.057 22.67 115.057 21.57ZM131.457 30.21C129.937 30.21 128.577 29.96 127.377 29.46C126.197 28.94 125.257 28.24 124.557 27.36C123.877 26.46 123.497 25.45 123.417 24.33H129.117C129.197 24.87 129.447 25.29 129.867 25.59C130.287 25.89 130.807 26.04 131.427 26.04C131.907 26.04 132.287 25.94 132.567 25.74C132.847 25.54 132.987 25.28 132.987 24.96C132.987 24.54 132.757 24.23 132.297 24.03C131.837 23.83 131.077 23.61 130.017 23.37C128.817 23.13 127.817 22.86 127.017 22.56C126.217 22.26 125.517 21.77 124.917 21.09C124.337 20.41 124.047 19.49 124.047 18.33C124.047 17.33 124.317 16.43 124.857 15.63C125.397 14.81 126.187 14.16 127.227 13.68C128.287 13.2 129.557 12.96 131.037 12.96C133.237 12.96 134.967 13.5 136.227 14.58C137.487 15.66 138.217 17.08 138.417 18.84H133.107C133.007 18.3 132.767 17.89 132.387 17.61C132.027 17.31 131.537 17.16 130.917 17.16C130.437 17.16 130.067 17.25 129.807 17.43C129.567 17.61 129.447 17.86 129.447 18.18C129.447 18.58 129.677 18.89 130.137 19.11C130.597 19.31 131.337 19.52 132.357 19.74C133.577 20 134.587 20.29 135.387 20.61C136.207 20.93 136.917 21.45 137.517 22.17C138.137 22.87 138.447 23.83 138.447 25.05C138.447 26.03 138.157 26.91 137.577 27.69C137.017 28.47 136.207 29.09 135.147 29.55C134.107 29.99 132.877 30.21 131.457 30.21ZM157.418 21.39C157.418 21.85 157.388 22.31 157.328 22.77H146.198C146.258 23.69 146.508 24.38 146.948 24.84C147.408 25.28 147.988 25.5 148.688 25.5C149.668 25.5 150.368 25.06 150.788 24.18H157.058C156.798 25.34 156.288 26.38 155.528 27.3C154.788 28.2 153.848 28.91 152.708 29.43C151.568 29.95 150.308 30.21 148.928 30.21C147.268 30.21 145.788 29.86 144.488 29.16C143.208 28.46 142.198 27.46 141.458 26.16C140.738 24.86 140.378 23.33 140.378 21.57C140.378 19.81 140.738 18.29 141.458 17.01C142.178 15.71 143.178 14.71 144.458 14.01C145.758 13.31 147.248 12.96 148.928 12.96C150.588 12.96 152.058 13.3 153.338 13.98C154.618 14.66 155.618 15.64 156.338 16.92C157.058 18.18 157.418 19.67 157.418 21.39ZM151.418 19.92C151.418 19.2 151.178 18.64 150.698 18.24C150.218 17.82 149.618 17.61 148.898 17.61C148.178 17.61 147.588 17.81 147.128 18.21C146.668 18.59 146.368 19.16 146.228 19.92H151.418ZM168.195 8.85C170.415 8.85 172.355 9.3 174.015 10.2C175.695 11.08 176.985 12.32 177.885 13.92C178.785 15.52 179.235 17.35 179.235 19.41C179.235 21.45 178.775 23.27 177.855 24.87C176.955 26.47 175.665 27.73 173.985 28.65C172.325 29.55 170.395 30 168.195 30H159.825V8.85H168.195ZM167.745 24.81C169.465 24.81 170.815 24.34 171.795 23.4C172.775 22.46 173.265 21.13 173.265 19.41C173.265 17.67 172.775 16.33 171.795 15.39C170.815 14.43 169.465 13.95 167.745 13.95H165.705V24.81H167.745ZM197.965 21.39C197.965 21.85 197.935 22.31 197.875 22.77H186.745C186.805 23.69 187.055 24.38 187.495 24.84C187.955 25.28 188.535 25.5 189.235 25.5C190.215 25.5 190.915 25.06 191.335 24.18H197.605C197.345 25.34 196.835 26.38 196.075 27.3C195.335 28.2 194.395 28.91 193.255 29.43C192.115 29.95 190.855 30.21 189.475 30.21C187.815 30.21 186.335 29.86 185.035 29.16C183.755 28.46 182.745 27.46 182.005 26.16C181.285 24.86 180.925 23.33 180.925 21.57C180.925 19.81 181.285 18.29 182.005 17.01C182.725 15.71 183.725 14.71 185.005 14.01C186.305 13.31 187.795 12.96 189.475 12.96C191.135 12.96 192.605 13.3 193.885 13.98C195.165 14.66 196.165 15.64 196.885 16.92C197.605 18.18 197.965 19.67 197.965 21.39ZM191.965 19.92C191.965 19.2 191.725 18.64 191.245 18.24C190.765 17.82 190.165 17.61 189.445 17.61C188.725 17.61 188.135 17.81 187.675 18.21C187.215 18.59 186.915 19.16 186.775 19.92H191.965ZM208.441 24.45L211.591 13.17H217.861L212.071 30H204.751L198.961 13.17H205.231L208.441 24.45Z" fill="#037DED"/>
<path d="M199 8L208.5 2L218 8" stroke="#E9862B" stroke-width="3"/>
</svg>
