<svg width="65" height="81" viewBox="0 0 65 81" fill="none" xmlns="http://www.w3.org/2000/svg">
<path d="M60.4898 34.8192L63.7433 38.7641C65.1209 40.4345 65.1209 43.1355 63.7433 44.7881L35.2679 79.3326C33.8903 81.003 31.6627 81.003 30.2997 79.3326L1.80969 44.7881C0.432088 43.1177 0.432088 40.4167 1.80969 38.7641L5.06319 34.8192C6.45545 33.1311 8.72703 33.1667 10.09 34.8903L26.9143 56.3029L26.9143 5.23253C26.9143 2.86914 28.4825 0.967773 30.4316 0.967773L35.1214 0.967773C37.0705 0.967773 38.6386 2.86914 38.6386 5.23253V56.3029L55.463 34.8903C56.826 33.1489 59.0975 33.1133 60.4898 34.8192V34.8192Z" fill="#FFEBD9"/>
</svg>
