<svg width="584" height="466" viewBox="0 0 584 466" fill="none" xmlns="http://www.w3.org/2000/svg">
<g clip-path="url(#clip0_12_91)">
<path d="M584 9.69763H233.772V177.546H584V9.69763Z" fill="#E6E6E6"/>
<path d="M573.986 24.0909H243.787V164.132H573.986V24.0909Z" fill="white"/>
<path d="M583.851 0H233.623V15.0273H583.851V0Z" fill="#DEEDFF"/>
<path d="M244.679 11.6217C246.202 11.6217 247.437 10.3747 247.437 8.8364C247.437 7.29815 246.202 6.05115 244.679 6.05115C243.156 6.05115 241.922 7.29815 241.922 8.8364C241.922 10.3747 243.156 11.6217 244.679 11.6217Z" fill="white"/>
<path d="M255.147 11.6217C256.67 11.6217 257.904 10.3747 257.904 8.8364C257.904 7.29815 256.67 6.05115 255.147 6.05115C253.624 6.05115 252.389 7.29815 252.389 8.8364C252.389 10.3747 253.624 11.6217 255.147 11.6217Z" fill="white"/>
<path d="M265.615 11.6217C267.138 11.6217 268.372 10.3747 268.372 8.8364C268.372 7.29815 267.138 6.05115 265.615 6.05115C264.092 6.05115 262.857 7.29815 262.857 8.8364C262.857 10.3747 264.092 11.6217 265.615 11.6217Z" fill="white"/>
<path d="M496.249 46.7518H441.351V141.473H496.249V46.7518Z" fill="#F2F2F2"/>
<path d="M432.255 46.7501H321.523V72.8233H432.255V46.7501Z" fill="#FFEBD9"/>
<path d="M432.255 80.0841H321.523V108.138H432.255V80.0841Z" fill="#F2F2F2"/>
<path d="M432.255 115.398H321.523V141.472H432.255V115.398Z" fill="#F2F2F2"/>
<path d="M167.094 280.072C167.104 278.152 166.713 276.251 165.946 274.494C165.178 272.738 164.052 271.164 162.641 269.878C161.229 268.591 159.565 267.62 157.756 267.029C155.947 266.437 154.035 266.238 152.145 266.445C151.547 266.513 150.954 266.623 150.371 266.775L104.698 227.234L107.427 212.376L84.915 205.007L78.1275 228.819C77.3247 231.677 77.4555 234.72 78.5006 237.496C79.5457 240.273 81.4493 242.636 83.9291 244.233L140.116 280.125C140.116 280.572 140.139 281.018 140.185 281.462C140.39 283.371 140.992 285.215 141.952 286.872C142.912 288.53 144.208 289.964 145.755 291.081C147.302 292.198 149.065 292.971 150.929 293.352C152.793 293.732 154.715 293.711 156.57 293.288C157.109 293.168 157.64 293.013 158.16 292.825C160.76 291.875 163.011 290.144 164.608 287.864C166.205 285.584 167.073 282.865 167.094 280.072Z" fill="#9F616A"/>
<path d="M53.5432 325.93H112.432C112.432 327.64 173.123 329.027 173.123 329.027C174.076 329.752 174.944 330.583 175.711 331.505C178.017 334.282 179.277 337.792 179.269 341.416V343.894C179.267 348 177.652 351.938 174.777 354.842C171.901 357.746 168.002 359.378 163.937 359.379H53.5432C49.4778 359.375 45.58 357.743 42.7054 354.84C39.8308 351.936 38.2143 347.999 38.2108 343.894V341.416C38.2164 337.311 39.8336 333.375 42.7077 330.472C45.5819 327.569 49.4785 325.936 53.5432 325.93Z" fill="#3F3D56"/>
<path d="M117.6 358.764H101.655V462.827H117.6V358.764Z" fill="#3F3D56"/>
<path d="M162.984 464.121C162.984 466.069 138.821 464.875 109.014 464.875C79.2072 464.875 55.044 466.069 55.044 464.121C55.044 462.173 79.2072 446.722 109.014 446.722C138.821 446.722 162.984 462.173 162.984 464.121Z" fill="#3F3D56"/>
<path d="M148.59 450.064L163.627 450.063L170.781 410.671L148.587 410.673L148.59 450.064Z" fill="#9F616A"/>
<path d="M144.754 464.786L193.242 464.784V464.165C193.242 461.662 192.754 459.183 191.805 456.87C190.857 454.558 189.467 452.457 187.714 450.687C185.962 448.917 183.882 447.513 181.592 446.555C179.302 445.597 176.848 445.104 174.37 445.104H174.368L144.753 445.105L144.754 464.786Z" fill="#2F2E41"/>
<path d="M171.081 425.637L201.06 357.739C203.563 352.016 203.84 345.551 201.835 339.631C199.83 333.712 195.692 328.772 190.243 325.796L125.217 290.579L95.5444 288.029L68.1733 285.517L67.9759 285.854C67.7235 286.285 61.8385 296.551 65.8165 307.809C68.834 316.347 76.6828 323.017 89.1449 327.632C118.233 338.405 151.835 347.611 164.932 351.069C165.51 351.218 166.051 351.49 166.519 351.866C166.986 352.241 167.37 352.713 167.644 353.249C167.919 353.779 168.082 354.36 168.123 354.957C168.165 355.554 168.084 356.153 167.885 356.716L140.033 419.915C139.742 420.717 139.637 421.575 139.727 422.424C139.816 423.273 140.098 424.09 140.549 424.812C141.001 425.533 141.61 426.141 142.331 426.587C143.051 427.033 143.864 427.306 144.705 427.385L165.517 428.915C165.693 428.932 165.869 428.941 166.044 428.941C167.11 428.94 168.153 428.628 169.047 428.042C169.941 427.455 170.647 426.62 171.081 425.637Z" fill="#CBCBCB"/>
<path d="M138.777 450.064L153.813 450.063L160.968 410.671L138.774 410.673L138.777 450.064Z" fill="#9F616A"/>
<path d="M134.941 464.786L183.429 464.784V464.165C183.429 461.662 182.941 459.183 181.993 456.87C181.044 454.558 179.654 452.457 177.902 450.687C176.149 448.917 174.069 447.513 171.779 446.555C169.49 445.597 167.035 445.104 164.557 445.104H164.555L134.94 445.105L134.941 464.786Z" fill="#2F2E41"/>
<path d="M160.041 429.353L190.02 361.455C192.523 355.732 192.8 349.267 190.796 343.348C188.791 337.428 184.652 332.488 179.204 329.513L114.178 294.295L84.505 291.746L63.0666 289.868L63.0695 289.571C62.8171 290.001 56.9321 300.268 60.9101 311.525C63.9276 320.064 65.6434 326.734 78.1055 331.349C107.193 342.121 140.796 351.328 153.892 354.785C154.471 354.935 155.012 355.206 155.479 355.582C155.947 355.958 156.33 356.429 156.604 356.966C156.879 357.495 157.043 358.077 157.084 358.674C157.126 359.27 157.044 359.869 156.845 360.433L128.994 423.632C128.703 424.433 128.598 425.292 128.687 426.141C128.777 426.99 129.058 427.806 129.51 428.528C129.961 429.25 130.571 429.857 131.291 430.303C132.012 430.749 132.824 431.022 133.666 431.101L154.477 432.632C154.654 432.649 154.83 432.657 155.005 432.657C156.071 432.657 157.114 432.344 158.007 431.758C158.901 431.172 159.608 430.336 160.041 429.353Z" fill="#CBCBCB"/>
<path d="M103.544 291.107C104.982 290.08 125.623 301.017 129.303 292.346C112.13 248.986 123.964 230.263 113.445 205.398C111.592 201.11 108.801 197.301 105.282 194.258C101.762 191.216 97.6054 189.019 93.1242 187.832L65.8331 186.44L65.6917 186.509C59.5333 189.556 54.5109 194.526 51.3693 200.682C48.2276 206.838 47.1339 213.853 48.2504 220.687C48.3475 247.747 64.3782 268.386 58.7729 288.013C58.5379 288.834 58.4693 289.694 58.5713 290.542C58.6733 291.39 58.9437 292.208 59.3665 292.948C59.7763 293.663 60.3269 294.286 60.9841 294.778C61.6414 295.27 62.3915 295.621 63.1882 295.809L99.2236 290.954C100.065 291.156 100.94 291.175 101.79 291.009C102.639 290.843 103.444 290.496 104.15 289.991L103.544 291.107Z" fill="#2F2E41"/>
<path d="M74.941 176.145C91.5793 176.145 105.067 162.523 105.067 145.718C105.067 128.914 91.5793 115.291 74.941 115.291C58.3026 115.291 44.8146 128.914 44.8146 145.718C44.8146 162.523 58.3026 176.145 74.941 176.145Z" fill="#9F616A"/>
<path d="M65.3451 173.646C66.9457 174.354 70.2236 161.472 68.7553 158.895C66.5717 155.064 66.7007 155.091 65.2511 152.556C63.8015 150.021 63.4772 146.551 65.3544 144.321C67.2316 142.09 71.5756 142.386 72.4324 145.183C71.8812 139.871 77.0835 135.601 82.2365 134.401C87.3894 133.201 92.8249 133.946 98.0064 132.878C104.02 131.639 110.276 126.548 107.877 119.87C107.465 118.758 106.849 117.735 106.06 116.854C103.288 113.706 99.4108 112.362 95.6195 111.063C87.7325 108.359 79.6296 105.621 71.3059 105.92C57.6293 106.41 44.7015 115.959 40.0937 128.974C39.52 130.598 39.0757 132.265 38.7647 133.96C35.9077 149.476 44.8286 164.78 59.3178 170.688L65.3451 173.646Z" fill="#2F2E41"/>
<path d="M223.333 222.576L226.788 243.294C226.826 243.525 226.801 243.762 226.715 243.98L199.612 312.379C199.504 312.65 199.308 312.875 199.056 313.018C198.804 313.16 198.511 313.211 198.226 313.162C197.942 313.113 197.682 312.967 197.491 312.748C197.301 312.529 197.19 312.25 197.178 311.959L196.029 284.472C196.022 284.29 196.053 284.108 196.121 283.938L220.918 222.307C221.022 222.05 221.205 221.834 221.441 221.692C221.677 221.55 221.953 221.49 222.226 221.52C222.499 221.55 222.755 221.67 222.955 221.86C223.155 222.051 223.288 222.302 223.333 222.576Z" fill="#3F3D56"/>
<path d="M221.414 224.166L224.697 241.965L200.645 304.381L197.522 284.303L221.414 224.166Z" fill="#DEEDFF"/>
<path d="M116.182 312.061C116.773 314.394 194.47 316.919 195.276 316.214C195.999 315.309 196.625 314.33 197.145 313.293C197.959 311.825 198.713 310.352 198.713 310.352L197.436 285.534L120.899 277.273C120.899 277.273 117.513 297.984 116.45 307.498C116.21 309.006 116.12 310.535 116.182 312.061Z" fill="#3F3D56"/>
<path opacity="0.1" d="M187.422 288.16L187.429 309.541L153.577 307.11L155.075 285.837L187.422 288.16Z" fill="black"/>
<path opacity="0.1" d="M143.31 291.864L143.514 291.838L141.916 300.928L123.109 299.577L123.751 290.459L143.31 291.864Z" fill="black"/>
<path opacity="0.1" d="M116.182 312.061C116.773 314.394 194.47 316.919 195.276 316.214C195.999 315.309 196.625 314.33 197.145 313.293L116.45 307.498C116.21 309.006 116.12 310.535 116.182 312.061Z" fill="black"/>
<path d="M84.9835 275L150.524 287.354C150.688 287.768 150.873 288.174 151.078 288.569C151.969 290.261 153.202 291.745 154.697 292.925C156.193 294.104 157.917 294.952 159.759 295.415C161.607 295.884 163.534 295.95 165.41 295.606C167.285 295.263 169.067 294.519 170.635 293.424C173.475 291.455 175.462 288.463 176.188 285.061C176.915 281.659 176.325 278.106 174.54 275.13C172.756 272.153 169.912 269.979 166.591 269.052C163.27 268.125 159.724 268.517 156.679 270.146C156.149 270.433 155.639 270.758 155.153 271.117L98.2267 251.476L95.3131 236.653L71.7001 238.231L74.1468 263.079C74.4437 265.979 75.6583 268.705 77.6104 270.852C79.5626 273 82.1481 274.454 84.9835 275Z" fill="#9F616A"/>
<path d="M70.9002 249.314L105.212 237.924L97.2078 214.714C96.145 211.632 94.0377 209.028 91.2583 207.364C88.4789 205.699 85.2064 205.08 82.019 205.617C78.7947 206.16 75.8688 207.849 73.7697 210.38C71.6707 212.91 70.5368 216.116 70.573 219.417L70.9002 249.314Z" fill="#2F2E41"/>
<path d="M288.558 466H0.755386C0.555046 466 0.362909 465.92 0.221247 465.777C0.0795846 465.633 0 465.439 0 465.237C0 465.035 0.0795846 464.841 0.221247 464.698C0.362909 464.555 0.555046 464.474 0.755386 464.474H288.558C288.758 464.474 288.95 464.555 289.092 464.698C289.233 464.841 289.313 465.035 289.313 465.237C289.313 465.439 289.233 465.633 289.092 465.777C288.95 465.92 288.758 466 288.558 466Z" fill="#CBCBCB"/>
</g>
<defs>
<clipPath id="clip0_12_91">
<rect width="584" height="466" fill="white"/>
</clipPath>
</defs>
</svg>
