<svg width="558" height="584" viewBox="0 0 558 584" fill="none" xmlns="http://www.w3.org/2000/svg">
<g clip-path="url(#clip0_12_196)">
<path d="M389.221 71.2406L388.152 72.3629L461.506 142.16L462.575 141.037L389.221 71.2406Z" fill="#E6E6E6"/>
<path d="M462.692 133.469L461.143 133.563L461.61 141.188L453.966 141.096L453.949 142.646L463.26 142.756L462.692 133.469Z" fill="#E6E6E6"/>
<path d="M396.778 70.753L396.762 72.3029L389.118 72.2111L389.585 79.8365L388.035 79.9301L387.47 70.6417L396.778 70.753Z" fill="#E6E6E6"/>
<path d="M425.363 115.222C430.072 115.222 433.89 111.407 433.89 106.7C433.89 101.994 430.072 98.1786 425.363 98.1786C420.654 98.1786 416.837 101.994 416.837 106.7C416.837 111.407 420.654 115.222 425.363 115.222Z" fill="#E6E6E6"/>
<path d="M170.33 71.2407L96.9754 141.038L98.0445 142.16L171.399 72.363L170.33 71.2407Z" fill="#E6E6E6"/>
<path d="M96.2912 142.756L105.602 142.646L105.584 141.096L97.9404 141.188L98.4078 133.563L96.8589 133.469L96.2912 142.756Z" fill="#E6E6E6"/>
<path d="M172.081 70.6417L171.514 79.9301L169.966 79.8365L170.432 72.2111L162.788 72.3029L162.772 70.753L172.081 70.6417Z" fill="#E6E6E6"/>
<path d="M134.187 115.222C138.896 115.222 142.714 111.407 142.714 106.7C142.714 101.994 138.896 98.1786 134.187 98.1786C129.478 98.1786 125.66 101.994 125.66 106.7C125.66 111.407 129.478 115.222 134.187 115.222Z" fill="#E6E6E6"/>
<path d="M343.337 176.63H214.663C212.813 176.628 211.04 175.893 209.732 174.586C208.424 173.279 207.689 171.506 207.686 169.658V6.97224C207.689 5.12373 208.424 3.35155 209.732 2.04445C211.04 0.73736 212.813 0.00210507 214.663 0H343.337C345.187 0.00210507 346.96 0.73736 348.268 2.04445C349.576 3.35155 350.311 5.12373 350.313 6.97224V169.658C350.311 171.506 349.576 173.279 348.268 174.586C346.96 175.893 345.187 176.628 343.337 176.63ZM214.663 1.54939C213.224 1.55101 211.845 2.12286 210.828 3.13949C209.81 4.15612 209.238 5.5345 209.237 6.97224V169.658C209.238 171.096 209.81 172.474 210.828 173.491C211.845 174.507 213.224 175.079 214.663 175.081H343.337C344.776 175.079 346.155 174.507 347.172 173.491C348.189 172.474 348.762 171.096 348.763 169.658V6.97224C348.762 5.5345 348.189 4.15612 347.172 3.13949C346.155 2.12286 344.776 1.55101 343.337 1.54939H214.663Z" fill="#3F3D56"/>
<path d="M268.296 78.1989H239.972C239.047 78.1979 238.161 77.8303 237.507 77.1767C236.853 76.5232 236.485 75.6371 236.484 74.7128V41.3083C236.485 40.384 236.853 39.4979 237.507 38.8443C238.161 38.1908 239.047 37.8232 239.972 37.8221H268.296C269.221 37.8232 270.108 38.1908 270.762 38.8443C271.415 39.4979 271.783 40.384 271.784 41.3083V74.7128C271.783 75.637 271.415 76.5232 270.762 77.1767C270.108 77.8303 269.221 78.1979 268.296 78.1989Z" fill="#AAD1FF"/>
<path d="M323.332 93.6928H295.008C294.083 93.6918 293.196 93.3242 292.542 92.6706C291.889 92.0171 291.521 91.1309 291.52 90.2067V56.8022C291.521 55.8779 291.889 54.9918 292.542 54.3382C293.196 53.6847 294.083 53.3171 295.008 53.316H323.332C324.257 53.3171 325.143 53.6847 325.797 54.3382C326.451 54.9918 326.819 55.8779 326.82 56.8022V90.2067C326.819 91.1309 326.451 92.0171 325.797 92.6706C325.143 93.3242 324.257 93.6918 323.332 93.6928Z" fill="#CCCCCC"/>
<path d="M279.148 140.949H250.824C249.9 140.948 249.013 140.581 248.359 139.927C247.705 139.273 247.337 138.387 247.336 137.463V104.059C247.337 103.134 247.705 102.248 248.359 101.595C249.013 100.941 249.9 100.573 250.824 100.572H279.148C280.073 100.573 280.96 100.941 281.614 101.595C282.268 102.248 282.635 103.134 282.636 104.059V137.463C282.635 138.387 282.268 139.273 281.614 139.927C280.96 140.581 280.073 140.948 279.148 140.949Z" fill="#FFD9B7"/>
<path d="M551.024 343.911H422.349C420.5 343.909 418.726 343.174 417.419 341.867C416.111 340.56 415.375 338.787 415.373 336.939V174.253C415.375 172.405 416.111 170.632 417.419 169.325C418.726 168.018 420.5 167.283 422.349 167.281H551.024C552.873 167.283 554.647 168.018 555.954 169.325C557.262 170.632 557.998 172.405 558 174.253V336.939C557.998 338.787 557.262 340.56 555.954 341.867C554.647 343.174 552.873 343.909 551.024 343.911ZM422.349 168.83C420.911 168.832 419.531 169.404 418.514 170.42C417.497 171.437 416.925 172.815 416.923 174.253V336.939C416.925 338.377 417.497 339.755 418.514 340.772C419.531 341.788 420.911 342.36 422.349 342.362H551.024C552.462 342.36 553.841 341.788 554.859 340.772C555.876 339.755 556.448 338.377 556.45 336.939V174.253C556.448 172.815 555.876 171.437 554.859 170.42C553.841 169.404 552.462 168.832 551.024 168.83H422.349Z" fill="#3F3D56"/>
<path d="M508.778 203.304H464.595C463.772 203.304 462.984 202.978 462.402 202.397C461.821 201.815 461.494 201.027 461.494 200.205C461.494 199.384 461.821 198.595 462.402 198.014C462.984 197.433 463.772 197.107 464.595 197.107H508.778C509.6 197.107 510.389 197.433 510.971 198.014C511.552 198.595 511.879 199.384 511.879 200.205C511.879 201.027 511.552 201.815 510.971 202.397C510.389 202.978 509.6 203.304 508.778 203.304Z" fill="#AAD1FF"/>
<path d="M530.482 232.743H442.891C442.483 232.743 442.079 232.664 441.702 232.508C441.326 232.353 440.983 232.125 440.695 231.837C440.406 231.549 440.177 231.207 440.021 230.831C439.865 230.455 439.785 230.051 439.785 229.644C439.785 229.236 439.865 228.833 440.021 228.457C440.177 228.08 440.406 227.738 440.695 227.451C440.983 227.163 441.326 226.935 441.702 226.779C442.079 226.624 442.483 226.544 442.891 226.545H530.482C530.89 226.544 531.294 226.624 531.67 226.779C532.047 226.935 532.39 227.163 532.678 227.451C532.967 227.738 533.195 228.08 533.352 228.457C533.508 228.833 533.588 229.236 533.588 229.644C533.588 230.051 533.508 230.455 533.352 230.831C533.195 231.207 532.967 231.549 532.678 231.837C532.39 232.125 532.047 232.353 531.67 232.508C531.294 232.664 530.89 232.743 530.482 232.743Z" fill="#CCCCCC"/>
<path d="M530.482 249.011H442.891C442.483 249.012 442.079 248.932 441.702 248.777C441.326 248.621 440.983 248.393 440.695 248.105C440.406 247.818 440.177 247.476 440.021 247.099C439.865 246.723 439.785 246.32 439.785 245.912C439.785 245.505 439.865 245.102 440.021 244.725C440.177 244.349 440.406 244.007 440.695 243.719C440.983 243.431 441.326 243.203 441.702 243.048C442.079 242.893 442.483 242.813 442.891 242.814H530.482C530.89 242.813 531.294 242.893 531.67 243.048C532.047 243.203 532.39 243.431 532.678 243.719C532.967 244.007 533.195 244.349 533.352 244.725C533.508 245.102 533.588 245.505 533.588 245.912C533.588 246.32 533.508 246.723 533.352 247.099C533.195 247.476 532.967 247.818 532.678 248.105C532.39 248.393 532.047 248.621 531.67 248.777C531.294 248.932 530.89 249.012 530.482 249.011Z" fill="#CCCCCC"/>
<path d="M530.482 265.28H442.891C442.483 265.28 442.079 265.201 441.702 265.045C441.326 264.89 440.983 264.662 440.695 264.374C440.406 264.086 440.177 263.744 440.021 263.368C439.865 262.992 439.785 262.588 439.785 262.181C439.785 261.774 439.865 261.37 440.021 260.994C440.177 260.618 440.406 260.276 440.695 259.988C440.983 259.7 441.326 259.472 441.702 259.317C442.079 259.161 442.483 259.081 442.891 259.082H530.482C530.89 259.081 531.294 259.161 531.67 259.317C532.047 259.472 532.39 259.7 532.678 259.988C532.967 260.276 533.195 260.618 533.352 260.994C533.508 261.37 533.588 261.774 533.588 262.181C533.588 262.588 533.508 262.992 533.352 263.368C533.195 263.744 532.967 264.086 532.678 264.374C532.39 264.662 532.047 264.89 531.67 265.045C531.294 265.201 530.89 265.28 530.482 265.28Z" fill="#CCCCCC"/>
<path d="M530.482 281.548H442.891C442.483 281.549 442.079 281.469 441.702 281.314C441.326 281.158 440.983 280.93 440.695 280.643C440.406 280.355 440.177 280.013 440.021 279.637C439.865 279.26 439.785 278.857 439.785 278.449C439.785 278.042 439.865 277.639 440.021 277.262C440.177 276.886 440.406 276.544 440.695 276.256C440.983 275.969 441.326 275.74 441.702 275.585C442.079 275.43 442.483 275.35 442.891 275.351H530.482C530.89 275.35 531.294 275.43 531.67 275.585C532.047 275.74 532.39 275.969 532.678 276.256C532.967 276.544 533.195 276.886 533.352 277.262C533.508 277.639 533.588 278.042 533.588 278.449C533.588 278.857 533.508 279.26 533.352 279.637C533.195 280.013 532.967 280.355 532.678 280.643C532.39 280.93 532.047 281.158 531.67 281.314C531.294 281.469 530.89 281.549 530.482 281.548Z" fill="#CCCCCC"/>
<path d="M530.482 297.817H442.891C442.483 297.818 442.079 297.738 441.702 297.583C441.326 297.427 440.983 297.199 440.695 296.911C440.406 296.623 440.177 296.282 440.021 295.905C439.865 295.529 439.785 295.126 439.785 294.718C439.785 294.311 439.865 293.907 440.021 293.531C440.177 293.155 440.406 292.813 440.695 292.525C440.983 292.237 441.326 292.009 441.702 291.854C442.079 291.698 442.483 291.619 442.891 291.619H530.482C530.89 291.619 531.294 291.698 531.67 291.854C532.047 292.009 532.39 292.237 532.678 292.525C532.967 292.813 533.195 293.155 533.352 293.531C533.508 293.907 533.588 294.311 533.588 294.718C533.588 295.126 533.508 295.529 533.352 295.905C533.195 296.282 532.967 296.623 532.678 296.911C532.39 297.199 532.047 297.427 531.67 297.583C531.294 297.738 530.89 297.818 530.482 297.817Z" fill="#CCCCCC"/>
<path d="M530.482 314.085H442.891C442.483 314.086 442.079 314.006 441.702 313.851C441.326 313.696 440.983 313.467 440.695 313.18C440.406 312.892 440.177 312.55 440.021 312.174C439.865 311.797 439.785 311.394 439.785 310.987C439.785 310.579 439.865 310.176 440.021 309.799C440.177 309.423 440.406 309.081 440.695 308.794C440.983 308.506 441.326 308.278 441.702 308.122C442.079 307.967 442.483 307.887 442.891 307.888H530.482C530.89 307.887 531.294 307.967 531.67 308.122C532.047 308.278 532.39 308.506 532.678 308.794C532.967 309.081 533.195 309.423 533.352 309.799C533.508 310.176 533.588 310.579 533.588 310.987C533.588 311.394 533.508 311.797 533.352 312.174C533.195 312.55 532.967 312.892 532.678 313.18C532.39 313.467 532.047 313.696 531.67 313.851C531.294 314.006 530.89 314.086 530.482 314.085Z" fill="#CCCCCC"/>
<path d="M135.651 343.911H6.97635C5.12676 343.909 3.35353 343.174 2.04567 341.867C0.737808 340.56 0.00213437 338.787 3.05176e-05 336.939V174.253C0.00213437 172.405 0.737808 170.632 2.04567 169.325C3.35353 168.018 5.12676 167.283 6.97635 167.281H135.651C137.5 167.283 139.274 168.018 140.581 169.325C141.889 170.632 142.625 172.405 142.627 174.253V336.939C142.625 338.787 141.889 340.56 140.581 341.867C139.274 343.174 137.5 343.909 135.651 343.911ZM6.97635 168.83C5.53777 168.832 4.15859 169.404 3.14136 170.42C2.12413 171.437 1.55193 172.815 1.55031 174.253V336.939C1.55193 338.377 2.12413 339.755 3.14136 340.772C4.15859 341.788 5.53777 342.36 6.97635 342.362H135.651C137.089 342.36 138.469 341.788 139.486 340.772C140.503 339.755 141.075 338.377 141.077 336.939V174.253C141.075 172.815 140.503 171.437 139.486 170.42C138.469 169.404 137.089 168.832 135.651 168.83H6.97635Z" fill="#3F3D56"/>
<path d="M115.244 205.691H76.4862C75.6639 205.691 74.8753 205.365 74.2938 204.783C73.7123 204.202 73.3857 203.414 73.3857 202.592C73.3857 201.77 73.7123 200.982 74.2938 200.401C74.8753 199.82 75.6639 199.494 76.4862 199.494H115.244C116.066 199.494 116.855 199.82 117.436 200.401C118.018 200.982 118.344 201.77 118.344 202.592C118.344 203.414 118.018 204.202 117.436 204.783C116.855 205.365 116.066 205.691 115.244 205.691Z" fill="#3F3D56"/>
<path d="M115.244 221.96H76.4862C75.6639 221.96 74.8753 221.633 74.2938 221.052C73.7123 220.471 73.3857 219.683 73.3857 218.861C73.3857 218.039 73.7123 217.251 74.2938 216.67C74.8753 216.089 75.6639 215.762 76.4862 215.762H115.244C116.066 215.762 116.855 216.089 117.436 216.67C118.018 217.251 118.344 218.039 118.344 218.861C118.344 219.683 118.018 220.471 117.436 221.052C116.855 221.633 116.066 221.96 115.244 221.96Z" fill="#3F3D56"/>
<path d="M56.5997 231.223H28.2759C27.3511 231.222 26.4644 230.854 25.8105 230.201C25.1566 229.547 24.7887 228.661 24.7877 227.737V194.332C24.7887 193.408 25.1566 192.522 25.8105 191.868C26.4644 191.215 27.3511 190.847 28.2759 190.846H56.5997C57.5245 190.847 58.4112 191.215 59.0651 191.868C59.7191 192.522 60.0869 193.408 60.0879 194.332V227.737C60.0869 228.661 59.7191 229.547 59.0651 230.201C58.4112 230.854 57.5245 231.222 56.5997 231.223Z" fill="#AAD1FF"/>
<path d="M114.975 255.272H27.3834C26.9758 255.272 26.572 255.193 26.1952 255.037C25.8184 254.882 25.476 254.654 25.1875 254.366C24.899 254.078 24.6702 253.736 24.514 253.36C24.3579 252.984 24.2775 252.58 24.2775 252.173C24.2775 251.765 24.3579 251.362 24.514 250.986C24.6702 250.609 24.899 250.268 25.1875 249.98C25.476 249.692 25.8184 249.464 26.1952 249.308C26.572 249.153 26.9758 249.073 27.3834 249.074H114.975C115.383 249.073 115.786 249.153 116.163 249.308C116.54 249.464 116.883 249.692 117.171 249.98C117.459 250.268 117.688 250.609 117.845 250.986C118.001 251.362 118.081 251.765 118.081 252.173C118.081 252.58 118.001 252.984 117.845 253.36C117.688 253.736 117.459 254.078 117.171 254.366C116.883 254.654 116.54 254.882 116.163 255.037C115.786 255.193 115.383 255.272 114.975 255.272Z" fill="#CCCCCC"/>
<path d="M114.975 271.54H27.3834C26.9758 271.541 26.572 271.461 26.1952 271.306C25.8184 271.15 25.476 270.922 25.1875 270.634C24.899 270.347 24.6702 270.005 24.514 269.628C24.3579 269.252 24.2775 268.849 24.2775 268.441C24.2775 268.034 24.3579 267.631 24.514 267.254C24.6702 266.878 24.899 266.536 25.1875 266.248C25.476 265.96 25.8184 265.732 26.1952 265.577C26.572 265.421 26.9758 265.342 27.3834 265.343H114.975C115.383 265.342 115.786 265.421 116.163 265.577C116.54 265.732 116.883 265.96 117.171 266.248C117.459 266.536 117.688 266.878 117.845 267.254C118.001 267.631 118.081 268.034 118.081 268.441C118.081 268.849 118.001 269.252 117.845 269.628C117.688 270.005 117.459 270.347 117.171 270.634C116.883 270.922 116.54 271.15 116.163 271.306C115.786 271.461 115.383 271.541 114.975 271.54Z" fill="#CCCCCC"/>
<path d="M114.975 287.809H27.3834C26.9758 287.809 26.572 287.73 26.1952 287.574C25.8184 287.419 25.476 287.191 25.1875 286.903C24.899 286.615 24.6702 286.273 24.514 285.897C24.3579 285.521 24.2775 285.117 24.2775 284.71C24.2775 284.302 24.3579 283.899 24.514 283.523C24.6702 283.146 24.899 282.805 25.1875 282.517C25.476 282.229 25.8184 282.001 26.1952 281.845C26.572 281.69 26.9758 281.61 27.3834 281.611H114.975C115.383 281.61 115.786 281.69 116.163 281.845C116.54 282.001 116.883 282.229 117.171 282.517C117.459 282.805 117.688 283.146 117.845 283.523C118.001 283.899 118.081 284.302 118.081 284.71C118.081 285.117 118.001 285.521 117.845 285.897C117.688 286.273 117.459 286.615 117.171 286.903C116.883 287.191 116.54 287.419 116.163 287.574C115.786 287.73 115.383 287.809 114.975 287.809Z" fill="#CCCCCC"/>
<path d="M114.975 304.077H27.3834C26.9758 304.078 26.572 303.998 26.1952 303.843C25.8184 303.687 25.476 303.459 25.1875 303.171C24.899 302.884 24.6702 302.542 24.514 302.165C24.3579 301.789 24.2775 301.386 24.2775 300.978C24.2775 300.571 24.3579 300.168 24.514 299.791C24.6702 299.415 24.899 299.073 25.1875 298.785C25.476 298.498 25.8184 298.269 26.1952 298.114C26.572 297.959 26.9758 297.879 27.3834 297.88H114.975C115.383 297.879 115.786 297.959 116.163 298.114C116.54 298.269 116.883 298.498 117.171 298.785C117.459 299.073 117.688 299.415 117.845 299.791C118.001 300.168 118.081 300.571 118.081 300.978C118.081 301.386 118.001 301.789 117.845 302.165C117.688 302.542 117.459 302.884 117.171 303.171C116.883 303.459 116.54 303.687 116.163 303.843C115.786 303.998 115.383 304.078 114.975 304.077Z" fill="#CCCCCC"/>
<path d="M114.975 320.346H27.3834C26.9758 320.346 26.572 320.267 26.1952 320.111C25.8184 319.956 25.476 319.728 25.1875 319.44C24.899 319.152 24.6702 318.81 24.514 318.434C24.3579 318.058 24.2775 317.654 24.2775 317.247C24.2775 316.84 24.3579 316.436 24.514 316.06C24.6702 315.684 24.899 315.342 25.1875 315.054C25.476 314.766 25.8184 314.538 26.1952 314.383C26.572 314.227 26.9758 314.147 27.3834 314.148H114.975C115.383 314.147 115.786 314.227 116.163 314.383C116.54 314.538 116.883 314.766 117.171 315.054C117.459 315.342 117.688 315.684 117.845 316.06C118.001 316.436 118.081 316.84 118.081 317.247C118.081 317.654 118.001 318.058 117.845 318.434C117.688 318.81 117.459 319.152 117.171 319.44C116.883 319.728 116.54 319.956 116.163 320.111C115.786 320.267 115.383 320.346 114.975 320.346Z" fill="#CCCCCC"/>
<path d="M184.295 438.203V404.798C184.296 403.874 184.664 402.988 185.318 402.334C185.972 401.681 186.858 401.313 187.783 401.312H216.107C217.032 401.313 217.919 401.681 218.572 402.334C219.226 402.988 219.594 403.874 219.595 404.798V438.203C219.594 439.127 219.226 440.013 218.572 440.667C217.919 441.32 217.032 441.688 216.107 441.689H187.783C186.858 441.688 185.972 441.32 185.318 440.667C184.664 440.013 184.296 439.127 184.295 438.203Z" fill="#E6E6E6"/>
<path d="M194.498 427.079V393.674C194.499 392.75 194.867 391.864 195.521 391.21C196.175 390.557 197.061 390.189 197.986 390.188H226.31C227.235 390.189 228.121 390.557 228.775 391.21C229.429 391.864 229.797 392.75 229.798 393.674V427.079C229.797 428.003 229.429 428.889 228.775 429.543C228.121 430.196 227.235 430.564 226.31 430.565H197.986C197.061 430.564 196.175 430.196 195.521 429.543C194.867 428.889 194.499 428.003 194.498 427.079Z" fill="#AAD1FF"/>
<path d="M321.466 416.39C320.4 415.775 319.483 414.933 318.777 413.925C318.072 412.917 317.597 411.766 317.385 410.554C317.173 409.342 317.229 408.099 317.55 406.911C317.871 405.724 318.448 404.621 319.242 403.68L310.462 339.544L328.751 340.441L331.622 402.999C333.115 404.436 334.028 406.37 334.189 408.435C334.35 410.5 333.747 412.553 332.496 414.203C331.244 415.854 329.43 416.988 327.397 417.391C325.364 417.795 323.254 417.438 321.466 416.39V416.39Z" fill="#A0616A"/>
<path d="M331.261 341.296C330.886 341.737 330.406 342.076 329.865 342.283L313.429 348.552C312.604 348.867 311.689 348.853 310.873 348.515C310.057 348.176 309.402 347.537 309.043 346.731L294.484 314.031C293.086 310.998 292.848 307.558 293.815 304.361C294.53 302.08 295.848 300.033 297.629 298.437C299.41 296.841 301.589 295.755 303.936 295.293C305.741 294.922 307.605 294.948 309.399 295.37C311.549 295.849 313.545 296.856 315.207 298.3C316.869 299.744 318.145 301.58 318.918 303.64L331.863 337.837C332.081 338.415 332.14 339.04 332.034 339.648C331.928 340.257 331.661 340.826 331.261 341.296Z" fill="#CCCCCC"/>
<path d="M245.616 572.932H234.244L230.121 528.89L245.617 529.098L245.616 572.932Z" fill="#A0616A"/>
<path d="M226.122 569.684H248.052V583.484H212.314C212.314 581.672 212.671 579.877 213.365 578.203C214.059 576.529 215.076 575.008 216.358 573.726C217.64 572.445 219.163 571.428 220.838 570.735C222.513 570.041 224.309 569.684 226.122 569.684Z" fill="#2F2E41"/>
<path d="M298.485 572.932H287.113L281.704 529.097L298.486 529.098L298.485 572.932Z" fill="#A0616A"/>
<path d="M278.991 569.684H300.921V583.484H265.183C265.183 581.672 265.54 579.877 266.234 578.203C266.928 576.529 267.945 575.008 269.227 573.726C270.509 572.445 272.032 571.428 273.707 570.735C275.382 570.041 277.178 569.684 278.991 569.684Z" fill="#2F2E41"/>
<path d="M299.915 557.336L282.055 556.014C281.039 555.938 280.087 555.493 279.376 554.764C278.665 554.035 278.245 553.072 278.194 552.055L274.212 469.804C274.174 469.014 273.849 468.266 273.298 467.699C272.746 467.133 272.007 466.786 271.219 466.726C270.43 466.665 269.647 466.894 269.015 467.37C268.384 467.845 267.948 468.535 267.789 469.309L251.176 550.335C250.971 551.331 250.408 552.219 249.594 552.83C248.779 553.442 247.77 553.735 246.755 553.655L230.61 552.364C230.057 552.32 229.518 552.166 229.025 551.911C228.532 551.656 228.095 551.306 227.739 550.88C227.383 550.454 227.116 549.962 226.953 549.431C226.79 548.901 226.735 548.344 226.79 547.792L241.767 398.105C241.826 397.52 242.007 396.954 242.3 396.444C242.593 395.934 242.99 395.492 243.466 395.146C243.942 394.801 244.486 394.559 245.062 394.438C245.637 394.317 246.232 394.32 246.807 394.445L303.763 406.819C304.706 407.026 305.549 407.552 306.148 408.31C306.747 409.067 307.065 410.008 307.049 410.973L304.396 553.254C304.375 554.345 303.928 555.384 303.15 556.149C302.371 556.914 301.324 557.345 300.233 557.348C300.127 557.348 300.021 557.343 299.915 557.336Z" fill="#2F2E41"/>
<path d="M284.29 272.949C296.872 272.949 307.071 262.756 307.071 250.182C307.071 237.607 296.872 227.414 284.29 227.414C271.708 227.414 261.509 237.607 261.509 250.182C261.509 262.756 271.708 272.949 284.29 272.949Z" fill="#A0616A"/>
<path d="M248.944 409.648C246.753 407.685 245.014 405.271 243.847 402.572C242.679 399.873 242.11 396.953 242.179 394.014C242.179 361.29 270.52 288.182 271.409 285.9C271.495 285.351 272.243 285.114 276.166 282.465C280.092 279.814 285.752 279.407 292.991 281.255C293.727 281.443 294.397 281.829 294.928 282.372C295.46 282.914 295.832 283.592 296.006 284.331L297.352 286.275C297.469 286.768 297.701 287.227 298.027 287.614C298.354 288.002 298.768 288.307 299.234 288.506C305.071 290.964 323.626 302.297 317.304 344.951C311.43 384.574 309.047 407.876 308.295 416.056C308.206 417.026 307.78 417.935 307.09 418.624C306.4 419.312 305.49 419.737 304.518 419.824C301.656 420.081 296.744 420.421 290.894 420.421C277.332 420.421 258.73 418.592 248.944 409.648Z" fill="#CCCCCC"/>
<path d="M221.723 397.525C221.181 396.421 220.888 395.211 220.865 393.981C220.841 392.751 221.088 391.531 221.588 390.406C222.087 389.282 222.827 388.281 223.756 387.473C224.685 386.666 225.779 386.072 226.962 385.732L255.431 327.587L270.117 338.517L237.622 392.062C238.06 394.086 237.74 396.201 236.723 398.005C235.705 399.809 234.06 401.178 232.101 401.851C230.141 402.525 228.002 402.457 226.089 401.659C224.176 400.862 222.623 399.391 221.723 397.525L221.723 397.525Z" fill="#A0616A"/>
<path d="M271.725 340.624C271.168 340.782 270.58 340.796 270.015 340.666L252.873 336.719C252.012 336.521 251.26 336 250.771 335.264C250.282 334.529 250.094 333.634 250.246 332.764L256.389 297.504C256.919 294.206 258.639 291.218 261.224 289.102C263.09 287.605 265.325 286.64 267.694 286.306C270.063 285.973 272.478 286.285 274.684 287.208C276.39 287.905 277.923 288.965 279.178 290.315C280.695 291.909 281.792 293.857 282.367 295.982C282.942 298.107 282.978 300.341 282.471 302.483L274.154 338.087C274.012 338.688 273.712 339.241 273.285 339.687C272.858 340.133 272.319 340.456 271.725 340.624Z" fill="#CCCCCC"/>
<path d="M278.956 270.752C277.848 269.622 277.029 268.24 276.57 266.725C276.112 265.21 276.027 263.606 276.323 262.051C277.117 257.899 277.584 255.182 277.672 254.193C277.975 250.812 274.555 248.075 271.17 247.639C271.039 247.622 270.929 247.611 270.838 247.603C270.924 247.688 271.016 247.774 271.098 247.851C271.74 248.454 272.541 249.206 272.35 249.981C272.236 250.447 271.809 250.779 271.046 250.992C265.753 252.472 261.677 251.113 258.217 246.713C257.245 245.462 256.577 244.003 256.265 242.45C255.026 236.374 258.328 231.194 261.316 227.92C263.78 225.219 267.775 221.941 272.812 221.661C276.729 221.442 281.388 223.695 282.782 227.755C283.439 226.781 284.315 225.973 285.339 225.396C286.363 224.819 287.508 224.488 288.682 224.43C291.356 224.373 293.989 225.104 296.249 226.534C307.295 232.858 312.042 247.922 306.616 259.43C303.202 266.669 295.806 272.058 287.314 273.495C286.783 273.585 286.244 273.63 285.705 273.631C284.444 273.629 283.197 273.373 282.037 272.878C280.878 272.384 279.83 271.661 278.956 270.752Z" fill="#2F2E41"/>
<path d="M172.129 584H352.997C353.243 584 353.479 583.902 353.653 583.728C353.827 583.555 353.924 583.319 353.924 583.073C353.924 582.827 353.827 582.591 353.653 582.418C353.479 582.244 353.243 582.146 352.997 582.146H172.129C171.883 582.146 171.647 582.244 171.473 582.418C171.299 582.591 171.202 582.827 171.202 583.073C171.202 583.319 171.299 583.555 171.473 583.728C171.647 583.902 171.883 584 172.129 584Z" fill="#3F3D56"/>
</g>
<defs>
<clipPath id="clip0_12_196">
<rect width="558" height="584" fill="white"/>
</clipPath>
</defs>
</svg>
