<svg width="352" height="266" viewBox="0 0 352 266" fill="none" xmlns="http://www.w3.org/2000/svg">
<g clip-path="url(#clip0_295_245)">
<path d="M19.416 192.385C29.5712 199.687 38.8876 207.853 47.2303 216.767C60.2866 230.668 70.852 246.254 78.5582 262.982C79.1223 264.202 76.8776 264.733 76.3198 263.527C71.4192 252.95 65.3562 242.824 58.2178 233.292C47.0862 218.401 33.4485 205.096 17.7745 193.834C16.6156 193.001 18.2666 191.558 19.416 192.385Z" fill="white"/>
<path d="M191.379 192.385C181.224 199.687 171.907 207.853 163.565 216.767C150.508 230.668 139.943 246.254 132.237 262.982C131.673 264.202 133.917 264.733 134.475 263.527C147.084 236.341 167.213 212.379 193.02 193.834C194.179 193.001 192.528 191.558 191.379 192.385Z" fill="white"/>
<path d="M124.117 119.66C134.571 119.66 143.045 112.179 143.045 102.95C143.045 93.7221 134.571 86.2411 124.117 86.2411C113.663 86.2411 105.189 93.7221 105.189 102.95C105.189 112.179 113.663 119.66 124.117 119.66Z" fill="#F2F2F2"/>
<path d="M65.7566 45.3508H196.166V51.6493H82.4045C75.7158 51.6493 69.0925 52.8123 62.913 55.0719C56.7334 57.3315 51.1185 60.6434 46.3888 64.8186C41.6592 68.9938 37.9074 73.9505 35.3477 79.4057C32.7881 84.8609 31.4706 90.7077 31.4706 96.6124V168.17H17.201C16.5703 168.17 15.9654 167.949 15.5193 167.555C15.0733 167.162 14.8228 166.628 14.8228 166.071V90.3139C14.8227 84.4093 16.1402 78.5624 18.6999 73.1073C21.2595 67.6521 25.0113 62.6954 29.7409 58.5202C34.4706 54.345 40.0855 51.033 46.2651 48.7734C52.4447 46.5138 59.0679 45.3508 65.7566 45.3508Z" fill="#F2F2F2"/>
<path d="M90.8403 263.574V167.901H122.591V263.574C122.59 264.218 122.3 264.834 121.785 265.289C121.27 265.743 120.571 265.999 119.843 266H93.588C92.8595 265.999 92.1611 265.743 91.646 265.289C91.1309 264.834 90.8412 264.218 90.8403 263.574Z" fill="#3F3D56"/>
<path d="M8.10645 166.014V88.2169C8.12229 75.832 13.7025 63.9585 23.6227 55.201C33.543 46.4436 46.9933 41.5176 61.0227 41.5035H195.555V168.709H11.1594C10.35 168.708 9.57398 168.424 9.00165 167.919C8.42932 167.414 8.10737 166.729 8.10645 166.014ZM194.334 42.5816H61.0227C47.3171 42.5953 34.1772 47.4077 24.4859 55.963C14.7945 64.5183 9.3431 76.1179 9.32761 88.2169V166.014C9.32814 166.443 9.5213 166.854 9.8647 167.157C10.2081 167.46 10.6737 167.631 11.1594 167.631H194.334V42.5816Z" fill="#3F3D56"/>
<path d="M124.117 111.574C121.203 111.572 118.41 110.548 116.35 108.73C114.289 106.911 113.13 104.445 113.127 101.872V32.3404C113.126 31.9117 112.933 31.5007 112.59 31.1975C112.246 30.8944 111.781 30.7239 111.295 30.7234H68.5544C67.745 30.7226 66.969 30.4384 66.3967 29.9331C65.8244 29.4279 65.5024 28.7429 65.5015 28.0284V2.69504C65.5024 1.98052 65.8244 1.29551 66.3967 0.790269C66.969 0.285031 67.745 0.000827397 68.5544 0H132.055C132.864 0.000817432 133.64 0.28502 134.213 0.79026C134.785 1.2955 135.107 1.98052 135.108 2.69504V101.872C135.105 104.445 133.946 106.911 131.885 108.73C129.825 110.548 127.031 111.572 124.117 111.574Z" fill="#0085FF"/>
<path d="M200.44 40.4255C209.651 40.4085 218.492 43.6223 225.019 49.3599C231.546 55.0976 235.224 62.8891 235.243 71.0204V159.584H303.628C306.375 159.579 309.012 160.538 310.959 162.249C312.905 163.96 314.002 166.284 314.008 168.709H165.637V71.0204C165.656 62.8891 169.334 55.0976 175.86 49.3599C182.387 43.6223 191.229 40.4085 200.44 40.4255Z" fill="#3F3D56"/>
<path d="M192.088 90.8591L199.295 117.139L340.267 87.013L333.06 60.7331C332.973 60.4118 332.795 60.1151 332.544 59.8706C332.292 59.626 331.975 59.4416 331.621 59.3344C331.359 59.2532 331.083 59.2165 330.806 59.2261L249.318 21.9797C248.841 21.7645 248.292 21.707 247.77 21.8176C247.249 21.9282 246.79 22.1997 246.475 22.583L207.203 70.9286L192.397 89.1593C192.37 89.1912 192.352 89.2279 192.342 89.2668C192.333 89.3057 192.333 89.3459 192.343 89.3847C192.042 89.8275 191.95 90.3572 192.088 90.8591Z" fill="white"/>
<path d="M192.343 89.3848C192.35 89.4189 192.365 89.4516 192.386 89.4808C192.407 89.51 192.435 89.5352 192.467 89.555C192.505 89.5781 192.548 89.5941 192.594 89.6021C192.639 89.61 192.686 89.6097 192.732 89.6011C192.805 89.5838 192.87 89.5443 192.914 89.4894L192.965 89.4272L193.736 88.4755L207.736 71.2466L246.997 22.9121C247.221 22.6382 247.549 22.4443 247.921 22.3655C248.293 22.2868 248.685 22.3284 249.025 22.4829L329.882 59.4408L330.607 59.7733C330.636 59.7841 330.667 59.7935 330.697 59.8011C330.752 59.7923 330.807 59.7876 330.863 59.7871C330.939 59.7647 331.002 59.7175 331.04 59.6552C331.059 59.6224 331.072 59.5864 331.076 59.5495C331.08 59.5125 331.075 59.4752 331.063 59.4397C331.05 59.4043 331.03 59.3713 331.003 59.3427C330.976 59.3141 330.943 59.2905 330.906 59.2732L330.806 59.2262L249.318 21.9797C248.841 21.7645 248.292 21.707 247.77 21.8176C247.249 21.9282 246.79 22.1997 246.475 22.583L207.203 70.9286L192.397 89.1593C192.37 89.1912 192.352 89.2279 192.342 89.2668C192.333 89.3057 192.333 89.3459 192.343 89.3848Z" fill="#3F3D56"/>
<path d="M234.681 92.0645L237.819 92.3718L261.108 94.6493L276.548 96.1581L277.459 96.2476L296.725 82.9639L297.463 82.4551L302.013 79.318L318.202 68.1571L318.299 67.3732L324.057 21.4961C324.135 20.8644 323.927 20.2309 323.477 19.7347C323.028 19.2384 322.373 18.9198 321.658 18.8487L244.813 11.334C244.097 11.2651 243.38 11.4492 242.818 11.8461C242.256 12.2431 241.895 12.8205 241.814 13.4519L237.753 45.8126L235.501 63.7539L233.486 79.8047L232.552 87.2587L232.279 89.4178C232.201 90.0498 232.411 90.6832 232.861 91.1793C233.311 91.6754 233.966 91.9937 234.681 92.0645Z" fill="#E6E6E6"/>
<path d="M255.798 51.8513L289.085 55.1058L300.89 56.2597C301.411 56.3106 301.939 56.2705 302.442 56.1415C302.946 56.0125 303.416 55.7972 303.825 55.5079C304.234 55.2186 304.575 54.861 304.828 54.4554C305.081 54.0498 305.241 53.6043 305.298 53.1442C305.356 52.6841 305.31 52.2185 305.164 51.7739C305.018 51.3294 304.774 50.9146 304.447 50.5532C304.119 50.1918 303.714 49.891 303.254 49.6678C302.795 49.4447 302.29 49.3036 301.769 49.2527L287.087 47.8172L256.68 44.8408C255.627 44.7382 254.571 45.0087 253.744 45.5931C252.917 46.1775 252.387 47.0278 252.27 47.9572C252.154 48.8865 252.46 49.8187 253.121 50.549C253.783 51.2792 254.746 51.7476 255.798 51.8513Z" fill="white"/>
<path d="M253.903 64.85C253.989 64.8635 254.075 64.8771 254.162 64.8845L292.803 68.6635L299.255 69.2956C300.308 69.3985 301.364 69.1278 302.191 68.5432C303.018 67.9586 303.548 67.108 303.664 66.1785C303.781 65.2489 303.474 64.3166 302.812 63.5866C302.15 62.8566 301.186 62.3887 300.133 62.2859L290.804 61.3748L260.196 58.3807L255.045 57.8768C254.015 57.7753 252.98 58.0315 252.16 58.5912C251.34 59.1508 250.799 59.97 250.65 60.8756C250.502 61.7812 250.759 62.7022 251.366 63.4439C251.973 64.1856 252.883 64.6898 253.903 64.85Z" fill="white"/>
<path d="M249.53 76.376C249.847 76.8401 250.28 77.2335 250.797 77.5257C251.314 77.8178 251.9 78.0009 252.51 78.0606L268.348 79.6091L296.555 82.3677L296.561 82.3664L297.463 82.4551L302.013 79.318C302.041 79.0797 302.041 78.8395 302.014 78.6011C301.918 77.8009 301.515 77.0535 300.873 76.4827C300.23 75.9119 299.386 75.5518 298.48 75.462L294.562 75.0777L279.019 73.5592L267.835 72.4642L253.388 71.0508C252.648 70.9785 251.899 71.0904 251.227 71.3739C250.555 71.6574 249.986 72.1013 249.585 72.6552C249.183 73.2092 248.966 73.8512 248.956 74.5087C248.946 75.1662 249.145 75.813 249.53 76.376Z" fill="white"/>
<path d="M271.775 35.9623L280.057 36.7721L283.715 37.1307L289.241 37.6706C290.294 37.7734 291.35 37.5028 292.177 36.9182C293.004 36.3336 293.534 35.4829 293.651 34.5534C293.767 33.6238 293.461 32.6915 292.798 31.9615C292.136 31.2315 291.173 30.7636 290.12 30.6608L272.657 28.9546C271.605 28.8513 270.549 29.1214 269.722 29.7055C268.894 30.2895 268.364 31.1397 268.247 32.069C268.13 32.9983 268.436 33.9305 269.098 34.6607C269.759 35.3908 270.722 35.859 271.775 35.9623Z" fill="white"/>
<path d="M204.052 55.481L214.15 92.3026L231.003 95.1314L246.592 97.7515L263.318 100.561L268.662 101.459C268.975 101.511 269.297 101.504 269.607 101.438C269.916 101.372 270.206 101.248 270.457 101.075L274.745 98.1191L277.46 96.2476L296.725 82.9639L284.475 38.2945C284.354 37.8501 284.09 37.4459 283.716 37.1307C283.387 36.8518 282.984 36.6504 282.543 36.5452C282.103 36.4399 281.64 36.4342 281.197 36.5285L206.053 52.587C205.353 52.7369 204.749 53.1259 204.374 53.6686C203.999 54.2112 203.883 54.8631 204.052 55.481Z" fill="#0085FF"/>
<path d="M227.206 84.7739C227.456 85.6822 228.104 86.4658 229.008 86.9527C229.912 87.4396 230.997 87.59 232.027 87.3709L276.119 77.9481C277.148 77.727 278.035 77.1548 278.587 76.357C279.138 75.5592 279.309 74.6009 279.061 73.6922C279.05 73.6472 279.036 73.6028 279.018 73.5593C278.737 72.6832 278.082 71.9374 277.191 71.4781C276.3 71.0187 275.243 70.8816 274.24 71.0953L230.147 80.518C229.119 80.7387 228.231 81.3108 227.679 82.1088C227.128 82.9067 226.957 83.8652 227.206 84.7739Z" fill="white"/>
<path d="M231.002 95.1314L246.592 97.7515L279.615 90.6944C280.644 90.4744 281.533 89.9024 282.084 89.1043C282.636 88.3062 282.806 87.3473 282.557 86.4385C282.307 85.5298 281.66 84.7457 280.755 84.2586C279.851 83.7716 278.765 83.6216 277.736 83.8416L233.643 93.2643C232.721 93.4597 231.91 93.9399 231.355 94.618C231.221 94.7801 231.103 94.9518 231.002 95.1314Z" fill="white"/>
<path d="M263.318 100.561L268.662 101.459C268.975 101.511 269.297 101.504 269.606 101.438C269.916 101.372 270.206 101.248 270.457 101.075L274.745 98.1191L263.318 100.561Z" fill="white"/>
<path d="M236.091 65.0294C236.341 65.9377 236.989 66.7213 237.893 67.2082C238.796 67.6951 239.882 67.8455 240.912 67.6263L257.99 63.9767C259.018 63.7555 259.906 63.1833 260.457 62.3855C261.009 61.5877 261.179 60.6295 260.932 59.7208C260.799 59.2325 260.548 58.7754 260.196 58.3807C259.723 57.8472 259.087 57.4449 258.362 57.2221C257.638 56.9992 256.856 56.9651 256.111 57.1239L239.032 60.7735C238.003 60.9936 237.115 61.5656 236.563 62.3637C236.012 63.1618 235.841 64.1207 236.091 65.0294Z" fill="white"/>
<path d="M246.591 97.7513L263.319 100.561L268.662 101.46C268.975 101.511 269.297 101.504 269.606 101.438C269.915 101.372 270.205 101.248 270.456 101.076L274.747 98.1194L273.241 98.4411L270.063 100.63C269.883 100.753 269.676 100.841 269.455 100.888C269.234 100.935 269.005 100.941 268.781 100.904L264.825 100.24L248.096 97.4295L246.591 97.7513ZM296.559 82.3685L296.722 82.9624L297.464 82.4532L296.559 82.3685ZM246.591 97.7513L263.319 100.561L268.662 101.46C268.975 101.511 269.297 101.504 269.606 101.438C269.915 101.372 270.205 101.248 270.456 101.076L274.747 98.1194L273.241 98.4411L270.063 100.63C269.883 100.753 269.676 100.841 269.455 100.888C269.234 100.935 269.005 100.941 268.781 100.904L264.825 100.24L248.096 97.4295L246.591 97.7513ZM246.591 97.7513L263.319 100.561L268.662 101.46C268.975 101.511 269.297 101.504 269.606 101.438C269.915 101.372 270.205 101.248 270.456 101.076L274.747 98.1194L273.241 98.4411L270.063 100.63C269.883 100.753 269.676 100.841 269.455 100.888C269.234 100.935 269.005 100.941 268.781 100.904L264.825 100.24L248.096 97.4295L246.591 97.7513ZM192.088 90.8591L210.965 159.696C211.105 160.204 211.468 160.643 211.974 160.916C212.48 161.189 213.089 161.273 213.665 161.15L350.289 131.953C350.866 131.83 351.363 131.509 351.672 131.062C351.98 130.616 352.076 130.079 351.937 129.57L333.06 60.7331C332.973 60.4118 332.795 60.1151 332.544 59.8706C332.292 59.626 331.975 59.4416 331.621 59.3344C331.359 59.2532 331.083 59.2165 330.806 59.2261C330.483 59.2344 330.167 59.3078 329.882 59.4408C329.75 59.4961 329.625 59.5642 329.511 59.6441L318.298 67.3733L302.014 78.6027L296.558 82.3645L296.559 82.3685L296.555 82.3695L276.548 96.1562L273.241 98.4411L270.063 100.63C269.883 100.753 269.676 100.841 269.455 100.888C269.234 100.935 269.005 100.941 268.781 100.904L264.825 100.24L248.096 97.4295L231.353 94.6182L194.681 88.4575C194.368 88.4028 194.046 88.409 193.736 88.4755C193.319 88.5655 192.94 88.7593 192.644 89.0339C192.531 89.1417 192.43 89.2593 192.343 89.3848C192.042 89.8275 191.95 90.3572 192.088 90.8591ZM246.591 97.7513L263.319 100.561L268.662 101.46C268.975 101.511 269.297 101.504 269.606 101.438C269.915 101.372 270.205 101.248 270.456 101.076L274.747 98.1194L273.241 98.4411L270.063 100.63C269.883 100.753 269.676 100.841 269.455 100.888C269.234 100.935 269.005 100.941 268.781 100.904L264.825 100.24L248.096 97.4295L246.591 97.7513ZM246.591 97.7513L263.319 100.561L268.662 101.46C268.975 101.511 269.297 101.504 269.606 101.438C269.915 101.372 270.205 101.248 270.456 101.076L274.747 98.1194L273.241 98.4411L270.063 100.63C269.883 100.753 269.676 100.841 269.455 100.888C269.234 100.935 269.005 100.941 268.781 100.904L264.825 100.24L248.096 97.4295L246.591 97.7513ZM246.591 97.7513L263.319 100.561L268.662 101.46C268.975 101.511 269.297 101.504 269.606 101.438C269.915 101.372 270.205 101.248 270.456 101.076L274.747 98.1194L273.241 98.4411L270.063 100.63C269.883 100.753 269.676 100.841 269.455 100.888C269.234 100.935 269.005 100.941 268.781 100.904L264.825 100.24L248.096 97.4295L246.591 97.7513Z" fill="white"/>
<path d="M246.591 97.7513L263.319 100.561L268.662 101.46C268.975 101.511 269.297 101.504 269.606 101.438C269.915 101.372 270.205 101.248 270.456 101.076L274.747 98.1194L273.241 98.4411L270.063 100.63C269.883 100.753 269.676 100.841 269.455 100.888C269.234 100.935 269.005 100.941 268.781 100.904L264.825 100.24L248.096 97.4295L246.591 97.7513ZM296.559 82.3685L296.722 82.9624L297.464 82.4532L296.559 82.3685ZM246.591 97.7513L263.319 100.561L268.662 101.46C268.975 101.511 269.297 101.504 269.606 101.438C269.915 101.372 270.205 101.248 270.456 101.076L274.747 98.1194L273.241 98.4411L270.063 100.63C269.883 100.753 269.676 100.841 269.455 100.888C269.234 100.935 269.005 100.941 268.781 100.904L264.825 100.24L248.096 97.4295L246.591 97.7513ZM246.591 97.7513L263.319 100.561L268.662 101.46C268.975 101.511 269.297 101.504 269.606 101.438C269.915 101.372 270.205 101.248 270.456 101.076L274.747 98.1194L273.241 98.4411L270.063 100.63C269.883 100.753 269.676 100.841 269.455 100.888C269.234 100.935 269.005 100.941 268.781 100.904L264.825 100.24L248.096 97.4295L246.591 97.7513ZM192.965 89.4272L193.048 89.4822C193.062 89.4621 193.086 89.4441 193.104 89.4231C193.289 89.2531 193.519 89.1263 193.773 89.0541C194.028 88.9819 194.298 88.9664 194.561 89.0092L231.004 95.1291L246.591 97.7513L263.319 100.561L268.662 101.46C268.975 101.511 269.297 101.504 269.606 101.438C269.915 101.372 270.205 101.248 270.456 101.076L274.747 98.1194L273.241 98.4411L270.063 100.63C269.883 100.753 269.676 100.841 269.455 100.888C269.234 100.935 269.005 100.941 268.781 100.904L264.825 100.24L248.096 97.4295L231.353 94.6182L194.681 88.4575C194.368 88.4028 194.046 88.409 193.736 88.4755L192.965 89.4272ZM192.088 90.8591L210.965 159.696C211.105 160.204 211.468 160.643 211.974 160.916C212.48 161.189 213.089 161.273 213.665 161.15L350.289 131.953C350.866 131.83 351.363 131.509 351.672 131.062C351.98 130.616 352.076 130.079 351.937 129.57L333.06 60.7331C332.973 60.4118 332.795 60.1151 332.544 59.8706C332.292 59.626 331.975 59.4416 331.621 59.3344C331.359 59.2532 331.083 59.2165 330.806 59.2261C330.483 59.2344 330.167 59.3078 329.882 59.4408C329.75 59.4961 329.625 59.5642 329.511 59.6441L318.298 67.3733L302.014 78.6027L296.558 82.3645L296.559 82.3685L296.555 82.3695L276.548 96.1563L273.241 98.4411L270.063 100.63C269.883 100.753 269.676 100.841 269.455 100.888C269.234 100.935 269.005 100.941 268.781 100.904L264.825 100.24L248.096 97.4295L231.353 94.6182L194.681 88.4575C194.368 88.4028 194.046 88.409 193.736 88.4755C193.319 88.5655 192.94 88.7593 192.644 89.0339C192.531 89.1417 192.43 89.2593 192.343 89.3848C192.042 89.8275 191.95 90.3572 192.088 90.8591ZM192.711 90.7261C192.655 90.5231 192.651 90.3118 192.7 90.1075C192.749 89.9032 192.849 89.7111 192.993 89.5453C193.006 89.521 193.024 89.4994 193.048 89.4822C193.062 89.4621 193.086 89.4441 193.104 89.4231C193.289 89.2531 193.519 89.1263 193.773 89.0541C194.028 88.9819 194.298 88.9664 194.561 89.0092L231.004 95.1291L246.591 97.7513L263.319 100.561L268.662 101.46C268.975 101.511 269.297 101.504 269.606 101.438C269.915 101.372 270.205 101.248 270.456 101.076L274.747 98.1194L277.46 96.248L296.722 82.9624L297.464 82.4532L302.011 79.3175L318.202 68.155L329.908 60.0852C330.086 59.9627 330.291 59.8751 330.511 59.8281C330.572 59.8149 330.634 59.8058 330.697 59.8011C330.752 59.7923 330.807 59.7876 330.863 59.7871C331.05 59.7855 331.236 59.8123 331.413 59.8663C331.665 59.9438 331.891 60.0759 332.071 60.2503C332.251 60.4248 332.379 60.6361 332.442 60.8652L351.319 129.702C351.369 129.882 351.378 130.069 351.345 130.253C351.313 130.436 351.24 130.612 351.13 130.771C351.021 130.929 350.877 131.067 350.707 131.176C350.537 131.286 350.344 131.364 350.14 131.408L213.515 160.605C213.103 160.692 212.669 160.632 212.307 160.436C211.946 160.241 211.687 159.927 211.588 159.563L192.711 90.7261ZM246.591 97.7513L263.319 100.561L268.662 101.46C268.975 101.511 269.297 101.504 269.606 101.438C269.915 101.372 270.205 101.248 270.456 101.076L274.747 98.1194L273.241 98.4411L270.063 100.63C269.883 100.753 269.676 100.841 269.455 100.888C269.234 100.935 269.005 100.941 268.781 100.904L264.825 100.24L248.096 97.4295L246.591 97.7513ZM246.591 97.7513L263.319 100.561L268.662 101.46C268.975 101.511 269.297 101.504 269.606 101.438C269.915 101.372 270.205 101.248 270.456 101.076L274.747 98.1194L273.241 98.4411L270.063 100.63C269.883 100.753 269.676 100.841 269.455 100.888C269.234 100.935 269.005 100.941 268.781 100.904L264.825 100.24L248.096 97.4295L246.591 97.7513ZM246.591 97.7513L263.319 100.561L268.662 101.46C268.975 101.511 269.297 101.504 269.606 101.438C269.915 101.372 270.205 101.248 270.456 101.076L274.747 98.1194L273.241 98.4411L270.063 100.63C269.883 100.753 269.676 100.841 269.455 100.888C269.234 100.935 269.005 100.941 268.781 100.904L264.825 100.24L248.096 97.4295L246.591 97.7513Z" fill="#3F3D56"/>
<path d="M314.681 118.429C314.373 117.301 314.585 116.112 315.269 115.121C315.954 114.131 317.056 113.421 318.333 113.146L335.577 109.461C336.853 109.193 338.197 109.382 339.316 109.987C340.434 110.591 341.235 111.563 341.544 112.689C341.853 113.814 341.644 115.002 340.962 115.991C340.281 116.981 339.183 117.691 337.909 117.968L320.665 121.653C319.388 121.925 318.04 121.738 316.918 121.133C315.796 120.529 314.992 119.557 314.681 118.429Z" fill="#0085FF"/>
<path d="M124.117 105.645C126.478 105.645 128.391 103.956 128.391 101.872C128.391 99.7885 126.478 98.0993 124.117 98.0993C121.757 98.0993 119.843 99.7885 119.843 101.872C119.843 103.956 121.757 105.645 124.117 105.645Z" fill="white"/>
</g>
<defs>
<clipPath id="clip0_295_245">
<rect width="352" height="266" fill="white"/>
</clipPath>
</defs>
</svg>
