<svg width="696" height="436" viewBox="0 0 696 436" fill="none" xmlns="http://www.w3.org/2000/svg">
<g clip-path="url(#clip0_12_134)">
<path d="M355.461 434.959C376.395 434.959 393.365 417.966 393.365 397.003C393.365 376.041 376.395 359.048 355.461 359.048C334.528 359.048 317.558 376.041 317.558 397.003C317.558 417.966 334.528 434.959 355.461 434.959Z" fill="#AAD1FF"/>
<path d="M351.401 0.948064C292.163 1.36708 243.66 49.5724 242.818 108.887C242.811 109.435 242.807 113.286 242.808 118.322C242.808 125.706 245.737 132.788 250.952 138.01C256.166 143.232 263.238 146.166 270.612 146.167H270.612C274.268 146.166 277.887 145.444 281.264 144.042C284.641 142.639 287.708 140.585 290.292 137.995C292.875 135.405 294.924 132.331 296.32 128.948C297.717 125.565 298.434 121.94 298.431 118.279C298.428 114.853 298.426 112.482 298.426 112.337C298.424 103.17 300.805 94.1599 305.335 86.1939C309.865 78.2278 316.388 71.5799 324.262 66.904C332.136 62.228 341.09 59.6852 350.243 59.5256C359.396 59.3659 368.433 61.595 376.465 65.9936C384.497 70.3921 391.247 76.8086 396.051 84.6118C400.855 92.415 403.548 101.336 403.865 110.498C404.182 119.659 402.112 128.746 397.858 136.863C393.605 144.98 387.314 151.849 379.605 156.794L379.615 156.805C379.615 156.805 340.04 182.318 327.975 217.316L327.985 217.319C325.864 224.488 324.789 231.927 324.794 239.405C324.794 242.479 324.974 269.375 325.323 291.204C325.445 298.737 328.519 305.919 333.882 311.201C339.245 316.484 346.467 319.444 353.99 319.442H353.99C357.77 319.442 361.512 318.693 365.002 317.239C368.492 315.785 371.661 313.655 374.325 310.97C376.99 308.285 379.098 305.099 380.528 301.595C381.958 298.092 382.683 294.339 382.659 290.554C382.538 270.562 382.473 247.283 382.473 245.594C382.473 224.104 403.176 202.692 420.181 188.728C439.764 172.649 453.856 150.738 459.516 126.02C460.768 120.931 461.459 115.72 461.575 110.48C461.575 96.0292 458.72 81.7211 453.173 68.3802C447.627 55.0393 439.499 42.9293 429.258 32.748C419.016 22.5666 406.865 14.5151 393.503 9.05744C380.14 3.59973 365.832 0.843671 351.401 0.948064Z" fill="#AAD1FF"/>
<path d="M695.019 436H0.981076C0.721363 435.999 0.47255 435.895 0.289171 435.711C0.105791 435.527 0.00280762 435.278 0.00280762 435.018C0.00280762 434.757 0.105791 434.508 0.289171 434.324C0.47255 434.14 0.721363 434.036 0.981076 434.035H695.019C695.279 434.035 695.529 434.139 695.713 434.323C695.897 434.507 696 434.757 696 435.018C696 435.278 695.897 435.528 695.713 435.712C695.529 435.896 695.279 436 695.019 436Z" fill="#3F3D56"/>
<path d="M517.833 170.092C531.485 170.092 542.552 159.009 542.552 145.338C542.552 131.667 531.485 120.584 517.833 120.584C504.18 120.584 493.113 131.667 493.113 145.338C493.113 159.009 504.18 170.092 517.833 170.092Z" fill="#2F2E41"/>
<path d="M472.153 425.164H462.052L457.246 386.146H472.156L472.153 425.164Z" fill="#A0616A"/>
<path d="M454.836 422.273H474.318V434.557H442.57C442.57 432.944 442.887 431.346 443.503 429.856C444.12 428.366 445.023 427.012 446.162 425.871C447.301 424.73 448.654 423.826 450.142 423.208C451.63 422.591 453.225 422.273 454.836 422.273Z" fill="#2F2E41"/>
<path d="M550.432 425.164H540.331L535.525 386.146H550.435L550.432 425.164Z" fill="#A0616A"/>
<path d="M533.115 422.273H552.597V434.557H520.848C520.848 432.944 521.166 431.346 521.782 429.856C522.398 428.366 523.302 427.012 524.441 425.871C525.58 424.73 526.932 423.826 528.421 423.208C529.909 422.591 531.504 422.273 533.115 422.273Z" fill="#2F2E41"/>
<path d="M514.076 170.236C525.253 170.236 534.314 161.163 534.314 149.97C534.314 138.778 525.253 129.705 514.076 129.705C502.899 129.705 493.838 138.778 493.838 149.97C493.838 161.163 502.899 170.236 514.076 170.236Z" fill="#A0616A"/>
<path d="M526.138 235.615L535.194 214.78C537.393 209.893 538.023 204.442 536.998 199.181C535.972 193.919 533.341 189.106 529.467 185.406C528.672 184.618 527.827 183.882 526.938 183.203C522.469 179.703 516.963 177.795 511.29 177.782C507.476 177.797 503.71 178.635 500.249 180.241C499.952 180.373 499.664 180.513 499.367 180.653C498.798 180.925 498.238 181.223 497.694 181.528C494.147 183.567 491.128 186.413 488.881 189.836C486.634 193.259 485.222 197.162 484.758 201.232L480.761 234.765C479.756 237.397 443.896 332.451 456.438 405.02C456.571 405.795 456.948 406.507 457.515 407.052C458.081 407.597 458.807 407.946 459.585 408.048L472.299 409.781C473.228 409.908 474.17 409.678 474.936 409.138C475.702 408.598 476.235 407.787 476.427 406.868L497.76 305.04C497.893 304.408 498.234 303.838 498.729 303.422C499.223 303.006 499.842 302.768 500.488 302.746C501.133 302.724 501.767 302.92 502.288 303.301C502.81 303.683 503.188 304.228 503.363 304.85L533.505 411.935C533.72 412.713 534.183 413.399 534.825 413.888C535.466 414.376 536.25 414.641 537.056 414.641C537.297 414.64 537.537 414.617 537.773 414.575L553.305 411.58C554.208 411.411 555.015 410.91 555.569 410.176C556.122 409.442 556.382 408.527 556.296 407.611C554.014 382.123 541.885 254.452 526.138 235.615Z" fill="#2F2E41"/>
<path d="M435.426 166.836C435.286 168.041 435.411 169.262 435.793 170.413C436.174 171.564 436.804 172.617 437.636 173.499C438.468 174.38 439.483 175.068 440.61 175.514C441.736 175.96 442.947 176.153 444.156 176.08L455.468 203.303L464.025 190.6L451.971 166.697C451.714 164.671 450.723 162.81 449.187 161.466C447.651 160.123 445.676 159.39 443.637 159.407C441.598 159.425 439.635 160.19 438.122 161.559C436.609 162.928 435.65 164.806 435.426 166.836L435.426 166.836Z" fill="#A0616A"/>
<path d="M512.954 263.025C514.157 262.881 515.313 262.475 516.342 261.835C517.371 261.195 518.248 260.337 518.91 259.321C519.572 258.305 520.003 257.156 520.174 255.956C520.344 254.755 520.25 253.531 519.897 252.37L543.698 235.011L529.369 229.638L508.964 246.946C507.056 247.669 505.48 249.067 504.533 250.876C503.586 252.685 503.335 254.779 503.827 256.761C504.319 258.743 505.519 260.475 507.202 261.63C508.884 262.784 510.93 263.281 512.954 263.025Z" fill="#A0616A"/>
<path d="M474.154 221.451C473.241 221.451 472.331 221.361 471.436 221.183C469.271 220.771 467.241 219.831 465.524 218.447C463.807 217.064 462.457 215.278 461.591 213.249L445.743 193.897C445.408 193.488 445.164 193.012 445.027 192.5C444.891 191.989 444.865 191.455 444.952 190.933C445.039 190.411 445.236 189.914 445.53 189.474C445.824 189.035 446.209 188.663 446.658 188.385L457.934 181.395C458.35 181.137 458.813 180.964 459.297 180.886C459.78 180.808 460.274 180.827 460.75 180.941C461.226 181.056 461.675 181.263 462.071 181.552C462.466 181.841 462.801 182.206 463.055 182.625L474.225 201.053L495.617 185.222C497.32 184.328 499.288 184.077 501.161 184.515C503.033 184.954 504.686 186.052 505.817 187.61C506.947 189.168 507.481 191.081 507.319 193C507.157 194.919 506.312 196.716 504.936 198.062L483.585 217.565C481.076 220.056 477.686 221.452 474.154 221.451Z" fill="#2F2E41"/>
<path d="M531.956 250.556C531.927 250.556 531.898 250.556 531.869 250.555C531.349 250.542 530.838 250.42 530.368 250.197C529.898 249.974 529.48 249.654 529.141 249.259L519.116 237.548C518.775 237.149 518.522 236.682 518.374 236.178C518.226 235.674 518.187 235.144 518.258 234.624C518.33 234.104 518.511 233.604 518.79 233.159C519.068 232.714 519.438 232.333 519.875 232.042L538.646 219.51L521.641 199.037C520.651 197.385 520.288 195.433 520.618 193.535C520.948 191.638 521.948 189.923 523.437 188.703C524.925 187.484 526.802 186.841 528.724 186.893C530.647 186.944 532.487 187.687 533.907 188.985L554.576 209.211C556.203 210.699 557.444 212.56 558.195 214.634C558.945 216.709 559.181 218.935 558.883 221.121C558.586 223.307 557.763 225.388 556.485 227.185C555.207 228.983 553.513 230.443 551.547 231.44L534.655 249.39C534.308 249.758 533.89 250.051 533.426 250.251C532.962 250.452 532.462 250.555 531.956 250.556Z" fill="#2F2E41"/>
<path d="M508.93 207.402C508.769 207.402 508.609 207.392 508.449 207.372C507.751 207.287 507.092 207.003 506.55 206.554C506.008 206.105 505.606 205.51 505.392 204.84L497.859 181.712C497.67 181.127 497.699 180.494 497.94 179.929C498.182 179.364 498.619 178.906 499.172 178.639L499.416 178.523C499.638 178.418 499.858 178.313 500.082 178.213C503.594 176.582 507.418 175.731 511.29 175.719C516.317 175.728 521.232 177.207 525.431 179.974C525.994 180.349 526.387 180.931 526.526 181.594C526.665 182.256 526.539 182.947 526.174 183.517L512.042 205.687C511.711 206.213 511.252 206.646 510.707 206.947C510.163 207.247 509.552 207.404 508.93 207.402Z" fill="#E6E6E6"/>
<path d="M537.322 134.287C541.789 134.287 545.41 130.661 545.41 126.187C545.41 121.714 541.789 118.087 537.322 118.087C532.854 118.087 529.233 121.714 529.233 126.187C529.233 130.661 532.854 134.287 537.322 134.287Z" fill="#2F2E41"/>
<path d="M509.593 117.284C503.911 117.284 498.462 119.544 494.444 123.567C490.426 127.591 488.169 133.047 488.169 138.737V147.813H499.317L504.649 138.737L506.248 147.813H540.08L531.016 138.737C531.016 133.047 528.759 127.591 524.741 123.567C520.724 119.544 515.275 117.284 509.593 117.284Z" fill="#2F2E41"/>
<path d="M541.479 120.639C542.374 117.838 544.226 115.443 546.709 113.874C549.193 112.305 552.149 111.663 555.059 112.061C560.214 112.924 564.29 117.074 566.718 121.708C569.146 126.342 570.268 131.529 571.9 136.501C573.533 141.472 575.848 146.471 579.97 149.689C584.091 152.908 590.415 153.781 594.463 150.47C594.001 153.92 592.467 157.138 590.078 159.667C587.69 162.197 584.567 163.91 581.153 164.565C577.739 165.22 574.205 164.784 571.052 163.318C567.899 161.852 565.286 159.43 563.583 156.395C561.447 152.59 560.895 148.13 560.262 143.811C559.629 139.493 558.806 135.024 556.256 131.484C553.706 127.944 548.932 125.631 544.882 127.244L541.479 120.639Z" fill="#2F2E41"/>
<path d="M278.463 132.996C271.089 132.995 264.017 130.061 258.802 124.84C253.588 119.618 250.659 112.536 250.658 105.152C250.658 100.115 250.661 96.2647 250.669 95.7171C250.903 78.4666 255.242 61.5207 263.325 46.2851C250.045 64.4897 242.743 86.377 242.429 108.919C242.422 109.467 242.418 113.317 242.418 118.354C242.419 125.738 245.348 132.82 250.563 138.042C255.777 143.263 262.849 146.197 270.223 146.198C276.283 146.196 282.176 144.213 287.008 140.551C291.839 136.889 295.345 131.747 296.993 125.908C291.901 130.48 285.301 133.005 278.463 132.996Z" fill="#3F3D56"/>
<path d="M353.286 59.619C361.811 60.0267 370.11 62.5002 377.47 66.8272C384.83 71.1541 391.032 77.2052 395.542 84.4609C400.053 91.7165 402.737 99.96 403.365 108.483C403.993 117.007 402.546 125.556 399.148 133.396C404.063 127.615 407.676 120.842 409.74 113.537C411.803 106.232 412.27 98.5667 411.107 91.0647C409.945 83.5627 407.181 76.3999 403.003 70.0646C398.826 63.7293 393.333 58.3706 386.9 54.3537C380.467 50.3368 373.244 47.7561 365.725 46.7877C358.205 45.8193 350.566 46.4859 343.327 48.7421C336.088 50.9982 329.42 54.7908 323.778 59.8614C318.136 64.932 313.651 71.1613 310.631 78.1246C315.851 71.9753 322.412 67.1087 329.807 63.9002C337.203 60.6917 345.236 59.227 353.286 59.619Z" fill="#3F3D56"/>
<path d="M361.84 306.272C354.318 306.273 347.096 303.314 341.733 298.031C336.37 292.748 333.296 285.566 333.174 278.034C332.825 256.204 332.644 229.309 332.644 226.235C332.64 218.757 333.715 211.318 335.836 204.148L335.826 204.146C337.079 200.547 338.592 197.044 340.353 193.666C334.947 200.881 330.644 208.863 327.586 217.348L327.596 217.35C325.475 224.52 324.4 231.959 324.405 239.437C324.405 242.511 324.585 269.406 324.934 291.236C325.056 298.768 328.13 305.95 333.493 311.233C338.856 316.516 346.078 319.475 353.601 319.474C359.803 319.473 365.838 317.458 370.8 313.731C375.763 310.005 379.385 304.768 381.123 298.806C375.852 303.618 368.974 306.282 361.84 306.272Z" fill="#3F3D56"/>
<path d="M104.268 425.54L114.369 425.539L119.175 386.521L104.265 386.522L104.268 425.54Z" fill="#FFB8B8"/>
<path d="M133.852 434.932L102.103 434.934L102.103 422.65L121.585 422.649C124.838 422.649 127.958 423.943 130.259 426.247C132.559 428.55 133.852 431.674 133.852 434.932L133.852 434.932Z" fill="#2F2E41"/>
<path d="M68.0125 425.54L78.1138 425.539L82.9201 386.521L68.0101 386.522L68.0125 425.54Z" fill="#FFB8B8"/>
<path d="M97.5966 434.932L65.8479 434.934L65.8474 422.65L85.3296 422.649C88.5828 422.649 91.7029 423.943 94.0035 426.247C96.304 428.55 97.5965 431.674 97.5966 434.932L97.5966 434.932Z" fill="#2F2E41"/>
<path d="M76.8401 413.54L66.9729 413.02C66.4641 412.994 65.9657 412.866 65.5065 412.645C65.0473 412.424 64.6365 412.114 64.2979 411.732C63.9592 411.351 63.6995 410.907 63.5337 410.424C63.3679 409.942 63.2994 409.431 63.3321 408.922L75.1256 278.168L129.435 292.844L134.668 291.414L118.305 407.166C118.165 408.037 117.734 408.834 117.081 409.426C116.428 410.017 115.593 410.369 114.714 410.421L104.077 410.917C103.545 410.947 103.013 410.865 102.514 410.679C102.015 410.492 101.56 410.203 101.178 409.831C100.797 409.459 100.496 409.012 100.295 408.518C100.095 408.024 99.9988 407.493 100.014 406.96L101.941 337.488C101.95 337.167 101.838 336.854 101.628 336.611C101.418 336.368 101.125 336.212 100.806 336.175C100.488 336.138 100.166 336.221 99.9062 336.409C99.6459 336.597 99.4654 336.876 99.4003 337.191L80.8137 410.472C80.6383 411.341 80.1671 412.123 79.4806 412.684C78.7941 413.244 77.9346 413.549 77.0488 413.546C76.9797 413.546 76.9101 413.544 76.8401 413.54Z" fill="#2F2E41"/>
<path d="M106.082 171.184C117.259 171.184 126.319 162.111 126.319 150.918C126.319 139.726 117.259 130.652 106.082 130.652C94.9045 130.652 85.8436 139.726 85.8436 150.918C85.8436 162.111 94.9045 171.184 106.082 171.184Z" fill="#FFB8B8"/>
<path d="M72.3868 210.458L74.612 258.536L75.4164 276.027C75.4485 276.789 75.7066 277.523 76.1579 278.137C76.6091 278.751 77.233 279.216 77.9496 279.472L130.138 298.403C130.559 298.56 131.006 298.639 131.456 298.635C131.97 298.637 132.479 298.536 132.953 298.337C133.427 298.138 133.856 297.846 134.215 297.477C134.574 297.108 134.854 296.671 135.041 296.191C135.227 295.711 135.314 295.199 135.298 294.684L133.159 208.239C133.018 201.146 130.411 194.325 125.787 188.951C121.162 183.577 114.811 179.988 107.826 178.801C107.322 178.723 106.808 178.646 106.294 178.578C101.964 178.039 97.5678 178.458 93.4159 179.804C89.264 181.15 85.4571 183.39 82.2629 186.368C78.9555 189.414 76.3566 193.151 74.65 197.313C72.9434 201.476 72.1708 205.963 72.3867 210.458L72.3868 210.458Z" fill="#CCCCCC"/>
<path d="M155.068 288.81C153.833 288.427 152.706 287.759 151.774 286.862C150.843 285.964 150.135 284.861 149.705 283.641C149.275 282.42 149.136 281.116 149.299 279.832C149.462 278.548 149.923 277.32 150.644 276.246L132.946 252.681L148.218 251.734L162.683 274.258C164.231 275.457 165.309 277.163 165.726 279.078C166.144 280.993 165.875 282.994 164.966 284.73C164.058 286.466 162.568 287.827 160.758 288.573C158.948 289.319 156.933 289.403 155.068 288.81H155.068Z" fill="#FFB8B8"/>
<path d="M142.624 271.982C142.156 271.791 141.729 271.51 141.37 271.153C141.01 270.796 140.725 270.372 140.531 269.904L113.868 206.292C113.345 205.046 113.072 203.71 113.065 202.359C113.058 201.007 113.316 199.668 113.826 198.417C114.336 197.166 115.088 196.028 116.037 195.068C116.987 194.108 118.116 193.345 119.36 192.822C120.604 192.299 121.939 192.027 123.288 192.021C124.637 192.015 125.975 192.275 127.223 192.786C128.472 193.298 129.608 194.051 130.566 195.003C131.524 195.954 132.285 197.085 132.807 198.332L159.469 261.945C159.863 262.888 159.868 263.949 159.482 264.896C159.095 265.842 158.35 266.596 157.409 266.993L145.572 271.968C145.106 272.165 144.606 272.268 144.1 272.271C143.594 272.273 143.092 272.175 142.624 271.982L142.624 271.982Z" fill="#CCCCCC"/>
<path d="M99.5749 269.738L125.184 220.636C125.678 219.692 126.525 218.982 127.541 218.663C128.557 218.344 129.657 218.441 130.601 218.934L167.773 238.374C168.716 238.868 169.424 239.717 169.743 240.734C170.062 241.751 169.965 242.853 169.473 243.799L143.864 292.901C143.37 293.845 142.522 294.555 141.507 294.874C140.491 295.193 139.39 295.096 138.446 294.603L101.275 275.163C100.332 274.669 99.6235 273.82 99.3047 272.803C98.986 271.786 99.0831 270.684 99.5749 269.738Z" fill="#3F3D56"/>
<path d="M116.749 247.305C116.294 246.093 115.562 245.005 114.612 244.128C113.663 243.25 112.521 242.607 111.279 242.249C110.037 241.892 108.729 241.83 107.458 242.069C106.188 242.307 104.991 242.84 103.963 243.624L79.4263 227.325L79.3846 242.647L102.692 255.776C103.978 257.253 105.743 258.23 107.677 258.534C109.61 258.838 111.589 258.451 113.266 257.441C114.943 256.43 116.212 254.86 116.848 253.007C117.485 251.153 117.45 249.135 116.749 247.305Z" fill="#FFB8B8"/>
<path d="M85.726 250.75L65.6729 234.844C63.5035 234.114 61.5433 232.869 59.9606 231.214C58.3778 229.559 57.2197 227.544 56.5858 225.342C55.9518 223.14 55.8609 220.817 56.3209 218.572C56.7808 216.328 57.7779 214.228 59.2265 212.454L77.4342 188.559C78.6995 187.011 80.479 185.97 82.4473 185.627C84.4157 185.285 86.4415 185.663 88.1544 186.693C89.8672 187.722 91.1528 189.335 91.7761 191.236C92.3993 193.137 92.3186 195.199 91.5488 197.045L77.1424 220.643L98.3138 230.699C98.8061 230.933 99.2433 231.268 99.5964 231.684C99.9496 232.1 100.211 232.585 100.362 233.109C100.514 233.633 100.553 234.184 100.477 234.724C100.4 235.264 100.21 235.782 99.919 236.243L91.3729 249.787C91.084 250.244 90.7024 250.635 90.2529 250.935C89.8034 251.235 89.296 251.438 88.7636 251.529C88.7424 251.533 88.7211 251.536 88.6999 251.539C88.1767 251.618 87.6428 251.589 87.1313 251.453C86.6198 251.318 86.1415 251.078 85.726 250.75Z" fill="#CCCCCC"/>
<path d="M90.7892 164.489C90.7024 164.234 90.6748 163.963 90.7087 163.697C90.7426 163.43 90.8369 163.175 90.9846 162.95C91.1322 162.726 91.3292 162.538 91.5605 162.401C91.7918 162.265 92.0512 162.183 92.3188 162.163C92.867 162.192 93.4034 162.333 93.8957 162.576C94.3879 162.82 94.8259 163.16 95.1831 163.578C95.9155 164.423 96.7682 165.156 97.7137 165.754C98.6927 166.248 100.02 166.177 100.579 165.235C101.103 164.35 100.744 163.166 100.426 162.138C99.6189 159.524 99.1672 156.812 99.0832 154.077C98.9918 151.023 99.422 147.837 101.11 145.456C103.289 142.382 107.184 141.216 110.87 141.3C114.557 141.385 118.184 142.524 121.835 143.245C123.096 143.493 124.578 143.621 125.421 142.642C126.317 141.602 125.988 139.918 125.607 138.513C124.617 134.869 123.567 131.1 121.268 128.156C118.782 125.097 115.231 123.096 111.33 122.554C107.585 122.089 103.784 122.521 100.238 123.815C94.4606 125.638 89.3772 129.184 85.6673 133.979C81.8429 139.078 80.1904 145.486 81.071 151.802C81.9313 157.303 84.8422 162.272 89.2167 165.709L90.7892 164.489Z" fill="#2F2E41"/>
<path d="M347.11 425.701C341.726 423.353 336.96 419.784 333.189 415.275C329.419 410.766 326.746 405.442 325.382 399.722C324.018 394.002 324 388.042 325.33 382.314C326.66 376.586 329.301 371.245 333.045 366.714C328.704 369.888 325.087 373.95 322.433 378.631C319.78 383.311 318.151 388.503 317.655 393.863C317.159 399.222 317.807 404.625 319.555 409.715C321.304 414.804 324.114 419.463 327.798 423.382C331.482 427.301 335.956 430.39 340.924 432.445C345.891 434.5 351.239 435.473 356.611 435.3C361.983 435.128 367.257 433.813 372.082 431.443C376.908 429.073 381.175 425.703 384.601 421.555C379.258 425.465 372.985 427.906 366.408 428.633C359.83 429.361 353.177 428.35 347.11 425.701Z" fill="#3F3D56"/>
</g>
<defs>
<clipPath id="clip0_12_134">
<rect width="696" height="436" fill="white"/>
</clipPath>
</defs>
</svg>
